<svg width="136" height="40" viewBox="0 0 136 40" fill="none" xmlns="http://www.w3.org/2000/svg">
<g clip-path="url(#clip0_3372_47952)">
<path d="M130.667 40.0002H5.6708C2.92084 40.0002 0.670898 37.7503 0.670898 35.0003V5.00088C0.670898 2.25092 2.92084 0.000976562 5.6708 0.000976562H130.667C133.417 0.000976562 135.666 2.25092 135.666 5.00088V35.0003C135.666 37.7503 133.417 40.0002 130.667 40.0002Z" fill="white"/>
<path d="M130.667 0.000976562H5.6708C2.92084 0.000976562 0.670898 2.25092 0.670898 5.00088V35.0003C0.670898 37.7503 2.92084 40.0002 5.6708 40.0002H130.667C133.417 40.0002 135.666 37.7503 135.666 35.0003V5.00088C135.666 2.25092 133.417 0.000976562 130.667 0.000976562ZM130.667 0.800557C132.983 0.800557 134.867 2.68494 134.867 5.00088V35.0003C134.867 37.3163 132.983 39.2006 130.667 39.2006H5.6708C3.35487 39.2006 1.4713 37.3163 1.4713 35.0003V5.00088C1.4713 2.68494 3.35487 0.800557 5.6708 0.800557H130.667Z" fill="#A2A2A1"/>
<mask id="path-3-inside-1_3372_47952" fill="white">
<path d="M107.604 30.0007H109.47V17.4988H107.604V30.0007ZM124.411 22.0026L122.272 27.4224H122.208L119.988 22.0026H117.978L121.308 29.5777L119.409 33.7916H121.355L126.486 22.003L124.411 22.0026ZM113.828 28.5806C113.218 28.5806 112.365 28.2747 112.365 27.5189C112.365 26.554 113.427 26.1841 114.343 26.1841C115.163 26.1841 115.55 26.3607 116.048 26.6021C115.903 27.7603 114.906 28.5805 113.828 28.5805L113.828 28.5806ZM114.054 21.7292C112.703 21.7292 111.304 22.3244 110.725 23.6432L112.381 24.3346C112.735 23.6432 113.394 23.4183 114.086 23.4183C115.051 23.4183 116.032 23.9968 116.048 25.0264V25.1549C115.71 24.9619 114.986 24.6725 114.102 24.6725C112.316 24.6725 110.499 25.6533 110.499 27.4869C110.499 29.1595 111.963 30.2372 113.603 30.2372C114.857 30.2372 115.55 29.6743 115.983 29.0146H116.048V29.9802H117.85V25.1869C117.85 22.9674 116.192 21.7291 114.054 21.7291V21.7292ZM102.522 23.5244H99.868V19.2394H102.522C103.917 19.2394 104.709 20.3941 104.709 21.3819C104.709 22.3507 103.917 23.5244 102.522 23.5244ZM102.474 17.4991H98.0029V30.001H99.8681V25.2648H102.474C104.542 25.2648 106.575 23.7679 106.575 21.3824C106.575 18.9973 104.542 17.4997 102.474 17.4997L102.474 17.4991ZM78.0936 28.5827C76.8045 28.5827 75.7256 27.503 75.7256 26.0214C75.7256 24.5226 76.8045 23.4277 78.0936 23.4277C79.3663 23.4277 80.3651 24.5227 80.3651 26.0214C80.3651 27.503 79.3663 28.5827 78.0936 28.5827ZM80.2361 22.7024H80.1716C79.7529 22.2031 78.947 21.752 77.9326 21.752C75.8057 21.752 73.8565 23.6211 73.8565 26.0214C73.8565 28.4054 75.8057 30.2581 77.9326 30.2581C78.947 30.2581 79.7529 29.8069 80.1716 29.2917H80.2361V29.9034C80.2361 31.5311 79.3663 32.4006 77.9647 32.4006C76.8213 32.4006 76.1124 31.5791 75.8221 30.8865L74.1953 31.563C74.6621 32.6903 75.9022 34.0763 77.9647 34.0763C80.1561 34.0763 82.0088 32.7872 82.0088 29.6455V22.0097H80.2362L80.2361 22.7024ZM83.2978 30.0003H85.1658V17.4985H83.2978V30.0003ZM87.9208 25.8762C87.8727 24.2328 89.1942 23.3953 90.1442 23.3953C90.8856 23.3953 91.5133 23.766 91.7235 24.2972L87.9208 25.8762ZM93.7203 24.4582C93.366 23.5082 92.2868 21.752 90.0797 21.752C87.8884 21.752 86.0681 23.4758 86.0681 26.0051C86.0681 28.3894 87.8728 30.2581 90.2887 30.2581C92.2379 30.2581 93.3661 29.0664 93.8336 28.3734L92.3836 27.4066C91.9001 28.1156 91.2399 28.5828 90.2887 28.5828C89.3388 28.5828 88.6618 28.1477 88.2275 27.2938L93.9137 24.9419L93.7203 24.4582ZM48.4133 23.057V24.8613H52.7307C52.6018 25.8762 52.2635 26.6172 51.7479 27.1328C51.1194 27.7609 50.1366 28.4538 48.4132 28.4538C45.755 28.4538 43.6769 26.3113 43.6769 23.6531C43.6769 20.995 45.755 18.8521 48.4132 18.8521C49.8471 18.8521 50.894 19.4161 51.6673 20.1411L52.9404 18.8681C51.8607 17.8372 50.4271 17.0479 48.4132 17.0479C44.7718 17.0479 41.7109 20.0122 41.7109 23.6531C41.7109 27.2937 44.7718 30.2581 48.4132 30.2581C50.3784 30.2581 51.8607 29.6136 53.0205 28.4055C54.2127 27.2133 54.5833 25.5379 54.5833 24.1844C54.5833 23.7661 54.5508 23.3794 54.4864 23.057H48.4133ZM59.4923 28.5827C58.2032 28.5827 57.0916 27.5194 57.0916 26.0051C57.0916 24.4746 58.2032 23.4278 59.4923 23.4278C60.7809 23.4278 61.8926 24.4746 61.8926 26.0051C61.8926 27.5194 60.7809 28.5827 59.4923 28.5827ZM59.4923 21.752C57.1396 21.752 55.2228 23.5402 55.2228 26.0051C55.2228 28.4538 57.1396 30.2581 59.4923 30.2581C61.8442 30.2581 63.7614 28.4538 63.7614 26.0051C63.7614 23.5402 61.8442 21.752 59.4923 21.752ZM68.8052 28.5827C67.5169 28.5827 66.4049 27.5194 66.4049 26.0051C66.4049 24.4746 67.517 23.4278 68.8052 23.4278C70.0943 23.4278 71.2055 24.4746 71.2055 26.0051C71.2055 27.5194 70.0943 28.5827 68.8052 28.5827ZM68.8052 21.752C66.4533 21.752 64.5365 23.5402 64.5365 26.0051C64.5365 28.4538 66.4533 30.2581 68.8052 30.2581C71.1579 30.2581 73.0747 28.4538 73.0747 26.0051C73.0747 23.5402 71.1579 21.752 68.8052 21.752Z"/>
</mask>
<path d="M107.604 30.0007H109.47V17.4988H107.604V30.0007ZM124.411 22.0026L122.272 27.4224H122.208L119.988 22.0026H117.978L121.308 29.5777L119.409 33.7916H121.355L126.486 22.003L124.411 22.0026ZM113.828 28.5806C113.218 28.5806 112.365 28.2747 112.365 27.5189C112.365 26.554 113.427 26.1841 114.343 26.1841C115.163 26.1841 115.55 26.3607 116.048 26.6021C115.903 27.7603 114.906 28.5805 113.828 28.5805L113.828 28.5806ZM114.054 21.7292C112.703 21.7292 111.304 22.3244 110.725 23.6432L112.381 24.3346C112.735 23.6432 113.394 23.4183 114.086 23.4183C115.051 23.4183 116.032 23.9968 116.048 25.0264V25.1549C115.71 24.9619 114.986 24.6725 114.102 24.6725C112.316 24.6725 110.499 25.6533 110.499 27.4869C110.499 29.1595 111.963 30.2372 113.603 30.2372C114.857 30.2372 115.55 29.6743 115.983 29.0146H116.048V29.9802H117.85V25.1869C117.85 22.9674 116.192 21.7291 114.054 21.7291V21.7292ZM102.522 23.5244H99.868V19.2394H102.522C103.917 19.2394 104.709 20.3941 104.709 21.3819C104.709 22.3507 103.917 23.5244 102.522 23.5244ZM102.474 17.4991H98.0029V30.001H99.8681V25.2648H102.474C104.542 25.2648 106.575 23.7679 106.575 21.3824C106.575 18.9973 104.542 17.4997 102.474 17.4997L102.474 17.4991ZM78.0936 28.5827C76.8045 28.5827 75.7256 27.503 75.7256 26.0214C75.7256 24.5226 76.8045 23.4277 78.0936 23.4277C79.3663 23.4277 80.3651 24.5227 80.3651 26.0214C80.3651 27.503 79.3663 28.5827 78.0936 28.5827ZM80.2361 22.7024H80.1716C79.7529 22.2031 78.947 21.752 77.9326 21.752C75.8057 21.752 73.8565 23.6211 73.8565 26.0214C73.8565 28.4054 75.8057 30.2581 77.9326 30.2581C78.947 30.2581 79.7529 29.8069 80.1716 29.2917H80.2361V29.9034C80.2361 31.5311 79.3663 32.4006 77.9647 32.4006C76.8213 32.4006 76.1124 31.5791 75.8221 30.8865L74.1953 31.563C74.6621 32.6903 75.9022 34.0763 77.9647 34.0763C80.1561 34.0763 82.0088 32.7872 82.0088 29.6455V22.0097H80.2362L80.2361 22.7024ZM83.2978 30.0003H85.1658V17.4985H83.2978V30.0003ZM87.9208 25.8762C87.8727 24.2328 89.1942 23.3953 90.1442 23.3953C90.8856 23.3953 91.5133 23.766 91.7235 24.2972L87.9208 25.8762ZM93.7203 24.4582C93.366 23.5082 92.2868 21.752 90.0797 21.752C87.8884 21.752 86.0681 23.4758 86.0681 26.0051C86.0681 28.3894 87.8728 30.2581 90.2887 30.2581C92.2379 30.2581 93.3661 29.0664 93.8336 28.3734L92.3836 27.4066C91.9001 28.1156 91.2399 28.5828 90.2887 28.5828C89.3388 28.5828 88.6618 28.1477 88.2275 27.2938L93.9137 24.9419L93.7203 24.4582ZM48.4133 23.057V24.8613H52.7307C52.6018 25.8762 52.2635 26.6172 51.7479 27.1328C51.1194 27.7609 50.1366 28.4538 48.4132 28.4538C45.755 28.4538 43.6769 26.3113 43.6769 23.6531C43.6769 20.995 45.755 18.8521 48.4132 18.8521C49.8471 18.8521 50.894 19.4161 51.6673 20.1411L52.9404 18.8681C51.8607 17.8372 50.4271 17.0479 48.4132 17.0479C44.7718 17.0479 41.7109 20.0122 41.7109 23.6531C41.7109 27.2937 44.7718 30.2581 48.4132 30.2581C50.3784 30.2581 51.8607 29.6136 53.0205 28.4055C54.2127 27.2133 54.5833 25.5379 54.5833 24.1844C54.5833 23.7661 54.5508 23.3794 54.4864 23.057H48.4133ZM59.4923 28.5827C58.2032 28.5827 57.0916 27.5194 57.0916 26.0051C57.0916 24.4746 58.2032 23.4278 59.4923 23.4278C60.7809 23.4278 61.8926 24.4746 61.8926 26.0051C61.8926 27.5194 60.7809 28.5827 59.4923 28.5827ZM59.4923 21.752C57.1396 21.752 55.2228 23.5402 55.2228 26.0051C55.2228 28.4538 57.1396 30.2581 59.4923 30.2581C61.8442 30.2581 63.7614 28.4538 63.7614 26.0051C63.7614 23.5402 61.8442 21.752 59.4923 21.752ZM68.8052 28.5827C67.5169 28.5827 66.4049 27.5194 66.4049 26.0051C66.4049 24.4746 67.517 23.4278 68.8052 23.4278C70.0943 23.4278 71.2055 24.4746 71.2055 26.0051C71.2055 27.5194 70.0943 28.5827 68.8052 28.5827ZM68.8052 21.752C66.4533 21.752 64.5365 23.5402 64.5365 26.0051C64.5365 28.4538 66.4533 30.2581 68.8052 30.2581C71.1579 30.2581 73.0747 28.4538 73.0747 26.0051C73.0747 23.5402 71.1579 21.752 68.8052 21.752Z" fill="white"/>
<path d="M107.604 30.0007H106.604V31.0007H107.604V30.0007ZM109.47 30.0007V31.0007H110.47V30.0007H109.47ZM109.47 17.4988H110.47V16.4988H109.47V17.4988ZM107.604 17.4988V16.4988H106.604V17.4988H107.604ZM124.411 22.0026L124.411 21.0026L123.73 21.0025L123.48 21.6355L124.411 22.0026ZM122.272 27.4224V28.4224H122.952L123.202 27.7895L122.272 27.4224ZM122.208 27.4224L121.282 27.8015L121.537 28.4224H122.208V27.4224ZM119.988 22.0026L120.913 21.6236L120.659 21.0026H119.988V22.0026ZM117.978 22.0026V21.0026H116.446L117.062 22.405L117.978 22.0026ZM121.308 29.5777L122.219 29.9885L122.402 29.5827L122.223 29.1752L121.308 29.5777ZM119.409 33.7916L118.497 33.3807L117.861 34.7916H119.409V33.7916ZM121.355 33.7916V34.7916H122.01L122.272 34.1906L121.355 33.7916ZM126.486 22.003L127.403 22.4021L128.011 21.0033L126.486 21.003L126.486 22.003ZM113.828 28.5806V29.5806H114.161L114.428 29.3806L113.828 28.5806ZM116.048 26.6021L117.04 26.7263L117.129 26.015L116.484 25.7022L116.048 26.6021ZM113.828 28.5805V27.5805H113.495L113.228 27.7805L113.828 28.5805ZM114.054 21.7292V22.7292H115.054V21.7292H114.054ZM110.725 23.6432L109.809 23.2412L109.4 24.1737L110.34 24.566L110.725 23.6432ZM112.381 24.3346L111.996 25.2574L112.85 25.6139L113.271 24.7904L112.381 24.3346ZM116.048 25.0264H117.048V25.0187L117.048 25.0109L116.048 25.0264ZM116.048 25.1549L115.552 26.0233L117.048 26.8775V25.1549H116.048ZM115.983 29.0146V28.0146H115.443L115.147 28.4659L115.983 29.0146ZM116.048 29.0146H117.048V28.0146H116.048V29.0146ZM116.048 29.9802H115.048V30.9802H116.048V29.9802ZM117.85 29.9802V30.9802H118.85V29.9802H117.85ZM114.054 21.7291V20.7291H113.054V21.7291H114.054ZM99.868 23.5244H98.868V24.5244H99.868V23.5244ZM99.868 19.2394V18.2394H98.868V19.2394H99.868ZM102.474 17.4991L103.463 17.3483L103.333 16.4991H102.474V17.4991ZM98.0029 17.4991V16.4991H97.0029V17.4991H98.0029ZM98.0029 30.001H97.0029V31.001H98.0029V30.001ZM99.8681 30.001V31.001H100.868V30.001H99.8681ZM99.8681 25.2648V24.2648H98.8681V25.2648H99.8681ZM102.474 17.4997L101.486 17.6505L101.615 18.4997H102.474V17.4997ZM80.2361 22.7024V23.7024H81.236L81.2361 22.7026L80.2361 22.7024ZM80.1716 22.7024L79.4054 23.345L79.7051 23.7024H80.1716V22.7024ZM80.1716 29.2917V28.2917H79.6958L79.3956 28.661L80.1716 29.2917ZM80.2361 29.2917H81.2361V28.2917H80.2361V29.2917ZM75.8221 30.8865L76.7444 30.5L76.359 29.5802L75.4381 29.9631L75.8221 30.8865ZM74.1953 31.563L73.8113 30.6397L72.8894 31.0231L73.2714 31.9456L74.1953 31.563ZM82.0088 22.0097H83.0088V21.0097H82.0088V22.0097ZM80.2362 22.0097V21.0097H79.2363L79.2362 22.0096L80.2362 22.0097ZM83.2978 30.0003H82.2978V31.0003H83.2978V30.0003ZM85.1658 30.0003V31.0003H86.1658V30.0003H85.1658ZM85.1658 17.4985H86.1658V16.4985H85.1658V17.4985ZM83.2978 17.4985V16.4985H82.2978V17.4985H83.2978ZM87.9208 25.8762L86.9212 25.9054L86.9637 27.3563L88.3043 26.7997L87.9208 25.8762ZM91.7235 24.2972L92.107 25.2208L93.0152 24.8437L92.6533 23.9293L91.7235 24.2972ZM93.7203 24.4582L92.7833 24.8076L92.7874 24.8186L92.7918 24.8294L93.7203 24.4582ZM93.8336 28.3734L94.6626 28.9326L95.2248 28.0991L94.3883 27.5413L93.8336 28.3734ZM92.3836 27.4066L92.9383 26.5746L92.1149 26.0256L91.5574 26.8432L92.3836 27.4066ZM88.2275 27.2938L87.8453 26.3697L86.8458 26.7831L87.3362 27.7472L88.2275 27.2938ZM93.9137 24.9419L94.2959 25.8659L95.209 25.4883L94.8422 24.5707L93.9137 24.9419ZM48.4133 23.057V22.057H47.4133V23.057H48.4133ZM48.4133 24.8613H47.4133V25.8613H48.4133V24.8613ZM52.7307 24.8613L53.7227 24.9873L53.8657 23.8613H52.7307V24.8613ZM51.7479 27.1328L52.4548 27.8401L52.455 27.8399L51.7479 27.1328ZM51.6673 20.1411L50.9834 20.8706L51.6898 21.5328L52.3744 20.8482L51.6673 20.1411ZM52.9404 18.8681L53.6475 19.5752L54.3712 18.8516L53.6309 18.1448L52.9404 18.8681ZM53.0205 28.4055L52.3134 27.6984L52.3061 27.7056L52.2991 27.713L53.0205 28.4055ZM54.4864 23.057L55.4671 22.8611L55.3064 22.057H54.4864V23.057ZM107.604 31.0007H109.47V29.0007H107.604V31.0007ZM110.47 30.0007V17.4988H108.47V30.0007H110.47ZM109.47 16.4988H107.604V18.4988H109.47V16.4988ZM106.604 17.4988V30.0007H108.604V17.4988H106.604ZM123.48 21.6355L121.342 27.0553L123.202 27.7895L125.341 22.3697L123.48 21.6355ZM122.272 26.4224H122.208V28.4224H122.272V26.4224ZM123.133 27.0434L120.913 21.6236L119.062 22.3816L121.282 27.8015L123.133 27.0434ZM119.988 21.0026H117.978V23.0026H119.988V21.0026ZM117.062 22.405L120.392 29.9801L122.223 29.1752L118.893 21.6002L117.062 22.405ZM120.396 29.1668L118.497 33.3807L120.321 34.2024L122.219 29.9885L120.396 29.1668ZM119.409 34.7916H121.355V32.7916H119.409V34.7916ZM122.272 34.1906L127.403 22.4021L125.569 21.6039L120.438 33.3925L122.272 34.1906ZM126.486 21.003L124.411 21.0026L124.41 23.0026L126.486 23.003L126.486 21.003ZM113.828 27.5806C113.756 27.5806 113.668 27.5711 113.579 27.5496C113.49 27.5278 113.422 27.4988 113.376 27.4721C113.331 27.4454 113.33 27.4332 113.341 27.451C113.348 27.4606 113.355 27.4745 113.36 27.4908C113.362 27.4986 113.364 27.5054 113.364 27.5107C113.365 27.5161 113.365 27.519 113.365 27.5189H111.365C111.365 28.3471 111.859 28.8986 112.359 29.1942C112.834 29.4743 113.384 29.5806 113.828 29.5806V27.5806ZM113.365 27.5189C113.365 27.4722 113.375 27.4622 113.377 27.459C113.385 27.4473 113.415 27.4095 113.5 27.3619C113.685 27.2581 113.995 27.1841 114.343 27.1841V25.1841C113.775 25.1841 113.096 25.2951 112.521 25.6174C111.91 25.9604 111.365 26.5877 111.365 27.5189H113.365ZM114.343 27.1841C114.677 27.1841 114.885 27.2195 115.043 27.2645C115.211 27.3123 115.362 27.3806 115.612 27.502L116.484 25.7022C116.237 25.5822 115.945 25.4415 115.59 25.3407C115.225 25.237 114.829 25.1841 114.343 25.1841V27.1841ZM115.056 26.4779C114.975 27.1232 114.415 27.5805 113.828 27.5805V29.5805C115.398 29.5805 116.831 28.3974 117.04 26.7263L115.056 26.4779ZM113.228 27.7805L113.228 27.7806L114.428 29.3806L114.428 29.3805L113.228 27.7805ZM114.054 20.7292C112.46 20.7292 110.602 21.4363 109.809 23.2412L111.641 24.0452C112.006 23.2126 112.946 22.7292 114.054 22.7292V20.7292ZM110.34 24.566L111.996 25.2574L112.766 23.4118L111.11 22.7204L110.34 24.566ZM113.271 24.7904C113.346 24.645 113.436 24.5688 113.542 24.5177C113.663 24.459 113.841 24.4183 114.086 24.4183V22.4183C113.186 22.4183 112.081 22.7271 111.491 23.8789L113.271 24.7904ZM114.086 24.4183C114.383 24.4183 114.653 24.5101 114.827 24.6389C114.98 24.7528 115.046 24.8791 115.048 25.0419L117.048 25.0109C117.034 24.1441 116.602 23.4663 116.019 23.0335C115.457 22.6157 114.754 22.4183 114.086 22.4183V24.4183ZM115.048 25.0264V25.1549H117.048V25.0264H115.048ZM116.544 24.2865C116.082 24.0229 115.189 23.6725 114.102 23.6725V25.6725C114.783 25.6725 115.338 25.9009 115.552 26.0233L116.544 24.2865ZM114.102 23.6725C113.043 23.6725 111.932 23.9603 111.057 24.573C110.158 25.2027 109.499 26.1921 109.499 27.4869H111.499C111.499 26.9481 111.749 26.5303 112.204 26.2113C112.684 25.8751 113.375 25.6725 114.102 25.6725V23.6725ZM109.499 27.4869C109.499 29.8701 111.584 31.2372 113.603 31.2372V29.2372C112.343 29.2372 111.499 28.449 111.499 27.4869H109.499ZM113.603 31.2372C114.386 31.2372 115.05 31.0594 115.603 30.7379C116.152 30.4189 116.539 29.9895 116.819 29.5633L115.147 28.4659C114.994 28.6994 114.818 28.8813 114.599 29.0087C114.383 29.1336 114.074 29.2372 113.603 29.2372V31.2372ZM115.983 30.0146H116.048V28.0146H115.983V30.0146ZM115.048 29.0146V29.9802H117.048V29.0146H115.048ZM116.048 30.9802H117.85V28.9802H116.048V30.9802ZM118.85 29.9802V25.1869H116.85V29.9802H118.85ZM118.85 25.1869C118.85 23.8078 118.325 22.6587 117.406 21.8679C116.506 21.0927 115.309 20.7291 114.054 20.7291V22.7291C114.938 22.7291 115.638 22.9847 116.101 23.3835C116.546 23.7668 116.85 24.3465 116.85 25.1869H118.85ZM113.054 21.7291V21.7292H115.054V21.7291H113.054ZM102.522 22.5244H99.868V24.5244H102.522V22.5244ZM100.868 23.5244V19.2394H98.868V23.5244H100.868ZM99.868 20.2394H102.522V18.2394H99.868V20.2394ZM102.522 20.2394C103.272 20.2394 103.709 20.8485 103.709 21.3819H105.709C105.709 19.9398 104.562 18.2394 102.522 18.2394V20.2394ZM103.709 21.3819C103.709 21.902 103.266 22.5244 102.522 22.5244V24.5244C104.567 24.5244 105.709 22.7994 105.709 21.3819H103.709ZM102.474 16.4991H98.0029V18.4991H102.474V16.4991ZM97.0029 17.4991V30.001H99.0029V17.4991H97.0029ZM98.0029 31.001H99.8681V29.001H98.0029V31.001ZM100.868 30.001V25.2648H98.8681V30.001H100.868ZM99.8681 26.2648H102.474V24.2648H99.8681V26.2648ZM102.474 26.2648C104.967 26.2648 107.575 24.4395 107.575 21.3824H105.575C105.575 23.0963 104.117 24.2648 102.474 24.2648V26.2648ZM107.575 21.3824C107.575 18.3259 104.967 16.4997 102.474 16.4997V18.4997C104.117 18.4997 105.575 19.6687 105.575 21.3824H107.575ZM103.463 17.3488L103.463 17.3483L101.485 17.65L101.486 17.6505L103.463 17.3488ZM78.0936 27.5827C77.4077 27.5827 76.7256 27.003 76.7256 26.0214H74.7256C74.7256 28.003 76.2013 29.5827 78.0936 29.5827V27.5827ZM76.7256 26.0214C76.7256 25.01 77.4195 24.4277 78.0936 24.4277V22.4277C76.1894 22.4277 74.7256 24.0353 74.7256 26.0214H76.7256ZM78.0936 24.4277C78.7042 24.4277 79.3651 24.9584 79.3651 26.0214H81.3651C81.3651 24.087 80.0283 22.4277 78.0936 22.4277V24.4277ZM79.3651 26.0214C79.3651 27.0544 78.7157 27.5827 78.0936 27.5827V29.5827C80.0168 29.5827 81.3651 27.9516 81.3651 26.0214H79.3651ZM80.2361 21.7024H80.1716V23.7024H80.2361V21.7024ZM80.9379 22.0599C80.3244 21.3283 79.2352 20.752 77.9326 20.752V22.752C78.6589 22.752 79.1815 23.078 79.4054 23.345L80.9379 22.0599ZM77.9326 20.752C75.236 20.752 72.8565 23.0865 72.8565 26.0214H74.8565C74.8565 24.1558 76.3754 22.752 77.9326 22.752V20.752ZM72.8565 26.0214C72.8565 28.9477 75.2435 31.2581 77.9326 31.2581V29.2581C76.3679 29.2581 74.8565 27.8631 74.8565 26.0214H72.8565ZM77.9326 31.2581C79.2355 31.2581 80.3312 30.6808 80.9476 29.9224L79.3956 28.661C79.1746 28.9329 78.6585 29.2581 77.9326 29.2581V31.2581ZM80.1716 30.2917H80.2361V28.2917H80.1716V30.2917ZM79.2361 29.2917V29.9034H81.2361V29.2917H79.2361ZM79.2361 29.9034C79.2361 30.5462 79.0658 30.8969 78.8948 31.0802C78.7323 31.2544 78.4547 31.4006 77.9647 31.4006V33.4006C78.8763 33.4006 79.7343 33.1121 80.3572 32.4446C80.9715 31.7862 81.2361 30.8883 81.2361 29.9034H79.2361ZM77.9647 31.4006C77.3711 31.4006 76.9449 30.9783 76.7444 30.5L74.8998 31.273C75.2799 32.1799 76.2714 33.4006 77.9647 33.4006V31.4006ZM75.4381 29.9631L73.8113 30.6397L74.5793 32.4864L76.2061 31.8098L75.4381 29.9631ZM73.2714 31.9456C73.8462 33.3338 75.3881 35.0763 77.9647 35.0763V33.0763C76.4163 33.0763 75.478 32.0468 75.1192 31.1804L73.2714 31.9456ZM77.9647 35.0763C79.2504 35.0763 80.5363 34.6963 81.5048 33.7568C82.4815 32.8094 83.0088 31.4161 83.0088 29.6455H81.0088C81.0088 31.0166 80.6097 31.8387 80.1122 32.3212C79.6066 32.8118 78.8704 33.0763 77.9647 33.0763V35.0763ZM83.0088 29.6455V22.0097H81.0088V29.6455H83.0088ZM82.0088 21.0097H80.2362V23.0097H82.0088V21.0097ZM79.2362 22.0096L79.2361 22.7023L81.2361 22.7026L81.2362 22.0098L79.2362 22.0096ZM83.2978 31.0003H85.1658V29.0003H83.2978V31.0003ZM86.1658 30.0003V17.4985H84.1658V30.0003H86.1658ZM85.1658 16.4985H83.2978V18.4985H85.1658V16.4985ZM82.2978 17.4985V30.0003H84.2978V17.4985H82.2978ZM88.9204 25.8469C88.8914 24.856 89.6647 24.3953 90.1442 24.3953V22.3953C88.7236 22.3953 86.8541 23.6096 86.9212 25.9054L88.9204 25.8469ZM90.1442 24.3953C90.6009 24.3953 90.7758 24.6201 90.7937 24.6652L92.6533 23.9293C92.2507 22.9119 91.1703 22.3953 90.1442 22.3953V24.3953ZM91.34 23.3737L87.5374 24.9526L88.3043 26.7997L92.107 25.2208L91.34 23.3737ZM94.6573 24.1088C94.2513 23.0203 92.9211 20.752 90.0797 20.752V22.752C91.6524 22.752 92.4807 23.9962 92.7833 24.8076L94.6573 24.1088ZM90.0797 20.752C87.3131 20.752 85.0681 22.9468 85.0681 26.0051H87.0681C87.0681 24.0048 88.4636 22.752 90.0797 22.752V20.752ZM85.0681 26.0051C85.0681 28.9267 87.3056 31.2581 90.2887 31.2581V29.2581C88.4399 29.2581 87.0681 27.8522 87.0681 26.0051H85.0681ZM90.2887 31.2581C92.699 31.2581 94.095 29.7739 94.6626 28.9326L93.0045 27.8141C92.6371 28.3588 91.7768 29.2581 90.2887 29.2581V31.2581ZM94.3883 27.5413L92.9383 26.5746L91.8288 28.2386L93.2788 29.2054L94.3883 27.5413ZM91.5574 26.8432C91.2141 27.3465 90.8352 27.5828 90.2887 27.5828V29.5828C91.6446 29.5828 92.586 28.8847 93.2098 27.97L91.5574 26.8432ZM90.2887 27.5828C89.9715 27.5828 89.7561 27.5121 89.5976 27.4123C89.4368 27.311 89.271 27.1397 89.1188 26.8404L87.3362 27.7472C87.6183 28.3018 88.0082 28.775 88.5319 29.1047C89.058 29.4359 89.656 29.5828 90.2887 29.5828V27.5828ZM88.6097 28.2179L94.2959 25.8659L93.5314 24.0178L87.8453 26.3697L88.6097 28.2179ZM94.8422 24.5707L94.6489 24.087L92.7918 24.8294L92.9851 25.3131L94.8422 24.5707ZM47.4133 23.057V24.8613H49.4133V23.057H47.4133ZM48.4133 25.8613H52.7307V23.8613H48.4133V25.8613ZM51.7386 24.7353C51.6297 25.5935 51.3599 26.1066 51.0408 26.4257L52.455 27.8399C53.1671 27.1277 53.5739 26.159 53.7227 24.9873L51.7386 24.7353ZM51.041 26.4255C50.5528 26.9133 49.8115 27.4538 48.4132 27.4538V29.4538C50.4618 29.4538 51.686 28.6084 52.4548 27.8401L51.041 26.4255ZM48.4132 27.4538C46.3248 27.4538 44.6769 25.7768 44.6769 23.6531H42.6769C42.6769 26.8458 45.1851 29.4538 48.4132 29.4538V27.4538ZM44.6769 23.6531C44.6769 21.5294 46.3249 19.8521 48.4132 19.8521V17.8521C45.185 17.8521 42.6769 20.4605 42.6769 23.6531H44.6769ZM48.4132 19.8521C49.5513 19.8521 50.3626 20.2887 50.9834 20.8706L52.3512 19.4115C51.4254 18.5436 50.1428 17.8521 48.4132 17.8521V19.8521ZM52.3744 20.8482L53.6475 19.5752L52.2333 18.161L50.9602 19.434L52.3744 20.8482ZM53.6309 18.1448C52.3992 16.9688 50.7278 16.0479 48.4132 16.0479V18.0479C50.1264 18.0479 51.3221 18.7056 52.2498 19.5914L53.6309 18.1448ZM48.4132 16.0479C44.2385 16.0479 40.7109 19.4411 40.7109 23.6531H42.7109C42.7109 20.5832 45.3051 18.0479 48.4132 18.0479V16.0479ZM40.7109 23.6531C40.7109 27.8648 44.2385 31.2581 48.4132 31.2581V29.2581C45.3051 29.2581 42.7109 26.7227 42.7109 23.6531H40.7109ZM48.4132 31.2581C50.6304 31.2581 52.38 30.5168 53.7419 29.098L52.2991 27.713C51.3415 28.7105 50.1263 29.2581 48.4132 29.2581V31.2581ZM53.7276 29.1126C55.1776 27.6626 55.5833 25.6838 55.5833 24.1844H53.5833C53.5833 25.392 53.2478 26.7639 52.3134 27.6984L53.7276 29.1126ZM55.5833 24.1844C55.5833 23.7194 55.5476 23.2643 55.4671 22.8611L53.5058 23.253C53.5541 23.4945 53.5833 23.8128 53.5833 24.1844H55.5833ZM54.4864 22.057H48.4133V24.057H54.4864V22.057ZM59.4923 27.5827C58.7891 27.5827 58.0916 27.0013 58.0916 26.0051H56.0916C56.0916 28.0375 57.6174 29.5827 59.4923 29.5827V27.5827ZM58.0916 26.0051C58.0916 24.9972 58.7848 24.4278 59.4923 24.4278V22.4278C57.6217 22.4278 56.0916 23.9521 56.0916 26.0051H58.0916ZM59.4923 24.4278C60.1992 24.4278 60.8926 24.997 60.8926 26.0051H62.8926C62.8926 23.9522 61.3626 22.4278 59.4923 22.4278V24.4278ZM60.8926 26.0051C60.8926 27.0014 60.195 27.5827 59.4923 27.5827V29.5827C61.3669 29.5827 62.8926 28.0374 62.8926 26.0051H60.8926ZM59.4923 20.752C56.6098 20.752 54.2228 22.9657 54.2228 26.0051H56.2228C56.2228 24.1147 57.6694 22.752 59.4923 22.752V20.752ZM54.2228 26.0051C54.2228 29.0259 56.6073 31.2581 59.4923 31.2581V29.2581C57.6719 29.2581 56.2228 27.8818 56.2228 26.0051H54.2228ZM59.4923 31.2581C62.3766 31.2581 64.7614 29.0259 64.7614 26.0051H62.7614C62.7614 27.8818 61.3119 29.2581 59.4923 29.2581V31.2581ZM64.7614 26.0051C64.7614 22.9657 62.374 20.752 59.4923 20.752V22.752C61.3144 22.752 62.7614 24.1147 62.7614 26.0051H64.7614ZM68.8052 27.5827C68.1028 27.5827 67.4049 27.0013 67.4049 26.0051H65.4049C65.4049 28.0375 66.9311 29.5827 68.8052 29.5827V27.5827ZM67.4049 26.0051C67.4049 24.9971 68.0986 24.4278 68.8052 24.4278V22.4278C66.9354 22.4278 65.4049 23.9521 65.4049 26.0051H67.4049ZM68.8052 24.4278C69.5125 24.4278 70.2055 24.9969 70.2055 26.0051H72.2055C72.2055 23.9523 70.676 22.4278 68.8052 22.4278V24.4278ZM70.2055 26.0051C70.2055 27.0015 69.5082 27.5827 68.8052 27.5827V29.5827C70.6803 29.5827 72.2055 28.0373 72.2055 26.0051H70.2055ZM68.8052 20.752C65.9234 20.752 63.5365 22.9658 63.5365 26.0051H65.5365C65.5365 24.1146 66.9832 22.752 68.8052 22.752V20.752ZM63.5365 26.0051C63.5365 29.0258 65.9208 31.2581 68.8052 31.2581V29.2581C66.9857 29.2581 65.5365 27.8819 65.5365 26.0051H63.5365ZM68.8052 31.2581C71.6902 31.2581 74.0747 29.0259 74.0747 26.0051H72.0747C72.0747 27.8818 70.6256 29.2581 68.8052 29.2581V31.2581ZM74.0747 26.0051C74.0747 22.9657 71.6877 20.752 68.8052 20.752V22.752C70.6281 22.752 72.0747 24.1147 72.0747 26.0051H74.0747Z" fill="#1D1934" mask="url(#path-3-inside-1_3372_47952)"/>
<path d="M21.3848 19.424L10.7393 30.7235C10.7397 30.7259 10.7405 30.7278 10.7408 30.7302C11.0673 31.9572 12.188 32.8607 13.5181 32.8607C14.0498 32.8607 14.549 32.7169 14.9771 32.4646L15.0111 32.4447L26.9947 25.5296L21.3854 19.4238" fill="#EB3131"/>
<path d="M32.1553 17.5004L32.1451 17.4934L26.9714 14.4941L21.1426 19.6809L26.9916 25.5292L32.138 22.5598C33.0403 22.0727 33.6528 21.1215 33.6528 20.0246C33.6528 18.9356 33.0485 17.9892 32.1552 17.5005" fill="#F6B60B"/>
<path d="M10.7373 9.27734C10.6733 9.51334 10.6396 9.76053 10.6396 10.0172V29.9846C10.6396 30.2408 10.6729 30.4889 10.7377 30.724L21.7508 19.7132L10.7377 9.27763" fill="#5778C5"/>
<path d="M21.4634 20.0015L26.9739 14.4927L15.0038 7.5526C14.5687 7.292 14.0609 7.1416 13.5175 7.1416C12.1875 7.1416 11.0652 8.04671 10.7387 9.27514C10.7383 9.27634 10.7383 9.27716 10.7383 9.27821L21.4633 20.0018" fill="#3BAD49"/>
<path d="M48.0632 9.78187H45.1461V10.5038H47.332C47.2726 11.0928 47.0382 11.5553 46.6429 11.8913C46.2477 12.2273 45.7429 12.396 45.1461 12.396C44.4914 12.396 43.9367 12.1679 43.4821 11.7148C43.0367 11.2523 42.8102 10.6804 42.8102 9.99134C42.8102 9.30235 43.0367 8.73043 43.4821 8.26798C43.9367 7.81488 44.4914 7.58829 45.1461 7.58829C45.4821 7.58829 45.8024 7.6461 46.096 7.77269C46.3898 7.89919 46.6257 8.07578 46.8101 8.30238L47.3648 7.74769C47.1132 7.4617 46.7945 7.243 46.3991 7.08361C46.0038 6.92421 45.5914 6.84771 45.146 6.84771C44.2726 6.84771 43.5321 7.1508 42.9273 7.75551C42.3226 8.36171 42.0195 9.1086 42.0195 9.99135C42.0195 10.8741 42.3226 11.6226 42.9273 12.2273C43.532 12.8319 44.2726 13.1351 45.146 13.1351C46.0632 13.1351 46.7944 12.8414 47.3569 12.2444C47.8522 11.7477 48.1053 11.0758 48.1053 10.2352C48.1053 10.093 48.0881 9.94139 48.0631 9.78199L48.0632 9.78187ZM49.1933 6.98195V13.0007H52.7072V12.2616H49.9667V10.3523H52.4386V9.63041H49.9667V7.72262H52.7072V6.98193L49.1933 6.98195ZM57.6346 7.72264V6.98195H53.4987V7.72264H55.18V13.0006H55.9534V7.72264H57.6346ZM61.379 6.98195H60.6056V13.0007H61.379V6.98195ZM66.484 7.72264V6.98195H62.3482V7.72264H64.0293V13.0006H64.8027V7.72264H66.484ZM74.2885 7.76484C73.6917 7.15076 72.9604 6.84766 72.087 6.84766C71.212 6.84766 70.4809 7.15075 69.8839 7.75546C69.287 8.35235 68.9934 9.10075 68.9934 9.9913C68.9934 10.8819 69.2871 11.6304 69.8839 12.2273C70.4808 12.8319 71.212 13.1351 72.087 13.1351C72.9526 13.1351 73.6916 12.8319 74.2885 12.2273C74.8854 11.6304 75.1791 10.8819 75.1791 9.9913C75.1791 9.10855 74.8854 8.36162 74.2885 7.76484ZM70.4386 8.26793C70.8839 7.81483 71.4308 7.58824 72.087 7.58824C72.7417 7.58824 73.2886 7.81484 73.726 8.26793C74.1713 8.71322 74.39 9.29438 74.39 9.99129C74.39 10.6898 74.1713 11.2694 73.726 11.7147C73.2885 12.1678 72.7417 12.3959 72.087 12.3959C71.4308 12.3959 70.8839 12.1678 70.4386 11.7147C70.0026 11.26 69.7839 10.6898 69.7839 9.99129C69.7839 9.2944 70.0026 8.72258 70.4386 8.26793ZM77.0166 9.25231L76.9838 8.0913H77.0166L80.076 13.0006H80.8837V6.98189H80.1103V10.5037L80.1431 11.6647H80.1103L77.1854 6.98189H76.2432V13.0006H77.0166V9.25231Z" fill="#1D1934" stroke="#1D1934" stroke-width="0.26666" stroke-miterlimit="10"/>
</g>
<defs>
<clipPath id="clip0_3372_47952">
<rect width="135.001" height="40" fill="white" transform="translate(0.667969)"/>
</clipPath>
</defs>
</svg>
