<svg width="61" height="20" viewBox="0 0 61 20" fill="none" xmlns="http://www.w3.org/2000/svg">
<g clip-path="url(#clip0_5180_45756)">
<path d="M55.5679 6.5e-05H5.26783C5.08448 6.5e-05 4.90333 6.5e-05 4.72046 0.001065C4.56739 0.002065 4.41553 0.00497 4.26099 0.007415C3.92525 0.0113659 3.59029 0.0409031 3.25904 0.09577C2.92825 0.151831 2.60782 0.257523 2.3086 0.40927C2.00974 0.562301 1.73666 0.761149 1.49927 0.9986C1.26064 1.23538 1.06172 1.50907 0.910163 1.80914C0.758188 2.10862 0.652809 2.42953 0.597663 2.76081C0.541994 3.09166 0.512037 3.42633 0.508063 3.76181C0.503423 3.91511 0.502933 4.06891 0.500488 4.22223V15.7794C0.502933 15.9346 0.503423 16.085 0.508063 16.2403C0.512039 16.5758 0.541995 16.9104 0.597663 17.2413C0.652656 17.5727 0.758042 17.8938 0.910163 18.1934C1.06165 18.4925 1.2606 18.7651 1.49927 19.0006C1.73576 19.2391 2.00901 19.4381 2.3086 19.5899C2.60782 19.7421 2.92821 19.8484 3.25904 19.9053C3.59035 19.9597 3.92527 19.9893 4.26099 19.9937C4.41553 19.9971 4.56739 19.9991 4.72046 19.9991C4.90332 20.0001 5.08449 20.0001 5.26783 20.0001H55.5679C55.7476 20.0001 55.9302 20.0001 56.1099 19.9991C56.2622 19.9991 56.4185 19.9971 56.5708 19.9937C56.9059 19.9895 57.2402 19.96 57.5708 19.9053C57.9027 19.848 58.2243 19.7417 58.5249 19.5899C58.8242 19.438 59.0972 19.239 59.3335 19.0006C59.5716 18.7642 59.771 18.4918 59.9243 18.1934C60.0753 17.8936 60.1797 17.5725 60.2339 17.2413C60.2896 16.9104 60.3206 16.5758 60.3267 16.2403C60.3286 16.085 60.3286 15.9346 60.3286 15.7794C60.3325 15.5977 60.3325 15.4171 60.3325 15.2325V4.76813C60.3325 4.58502 60.3325 4.40338 60.3286 4.22223C60.3286 4.06891 60.3286 3.91511 60.3267 3.76179C60.3206 3.42628 60.2896 3.09168 60.2339 2.76079C60.1795 2.42971 60.0752 2.10882 59.9243 1.80912C59.6157 1.20766 59.1263 0.718078 58.5249 0.409225C58.2243 0.257849 57.9027 0.152185 57.5708 0.095725C57.2403 0.0406164 56.9059 0.0110689 56.5708 0.007345C56.4185 0.004905 56.2622 0.001975 56.1099 0.001C55.9302 0 55.7476 0 55.5679 0V6.5e-05Z" fill="#A6A6A6"/>
<path d="M4.72292 19.5625C4.57058 19.5625 4.42192 19.5605 4.27078 19.5571C3.95767 19.5531 3.64529 19.5258 3.33621 19.4756C3.048 19.426 2.76881 19.3336 2.50784 19.2017C2.24926 19.0708 2.01341 18.8991 1.80934 18.6933C1.60231 18.49 1.42995 18.2541 1.29908 17.9951C1.16678 17.7344 1.07521 17.4549 1.02758 17.1665C0.976144 16.8566 0.948314 16.5432 0.944332 16.229C0.941162 16.1236 0.937012 15.7725 0.937012 15.7725V4.22217C0.937012 4.22217 0.941432 3.87646 0.944357 3.7749C0.94817 3.46124 0.975838 3.14833 1.02712 2.83887C1.07484 2.54963 1.16648 2.26937 1.29885 2.00781C1.42923 1.74897 1.60064 1.51293 1.80642 1.30884C2.01197 1.10281 2.24857 0.930302 2.50759 0.797605C2.76796 0.666047 3.04663 0.574366 3.33425 0.525635C3.64435 0.474918 3.95781 0.447498 4.27201 0.443605L4.72317 0.4375H56.1074L56.564 0.44385C56.8753 0.44755 57.1859 0.474725 57.4932 0.525145C57.7837 0.574488 58.0653 0.666808 58.3286 0.79907C58.8476 1.06649 59.2698 1.48958 59.5361 2.00904C59.6664 2.26879 59.7566 2.54675 59.8037 2.83349C59.8556 3.1455 59.8847 3.46087 59.8906 3.7771C59.8921 3.9187 59.8921 4.0708 59.8921 4.22217C59.896 4.40967 59.896 4.58813 59.896 4.76806V15.2324C59.896 15.414 59.896 15.5913 59.8921 15.77C59.8921 15.9326 59.8921 16.0815 59.8901 16.2348C59.8843 16.5454 59.8557 16.8552 59.8047 17.1616C59.758 17.4521 59.667 17.7338 59.5347 17.9966C59.4029 18.2528 59.2315 18.4866 59.0269 18.6894C58.8226 18.8963 58.5864 19.069 58.3272 19.2007C58.0646 19.3337 57.7834 19.4264 57.4932 19.4756C57.1841 19.5261 56.8717 19.5533 56.5586 19.5571C56.4121 19.5605 56.2588 19.5625 56.1099 19.5625L55.5679 19.5635L4.72292 19.5625Z" fill="black"/>
<path d="M12.885 10.1504C12.8904 9.73308 13.0012 9.32389 13.2072 8.96091C13.4132 8.59793 13.7077 8.29297 14.0633 8.07438C13.8374 7.7518 13.5394 7.48633 13.193 7.29905C12.8466 7.11178 12.4613 7.00785 12.0677 6.99554C11.2281 6.90741 10.4141 7.49795 9.98623 7.49795C9.5501 7.49795 8.89135 7.00429 8.18198 7.01888C7.72315 7.03371 7.27597 7.16713 6.88404 7.40616C6.4921 7.64519 6.16876 7.98167 5.94552 8.38282C4.97852 10.057 5.69982 12.5176 6.62612 13.8709C7.08957 14.5335 7.63121 15.2738 8.33994 15.2475C9.03347 15.2187 9.29249 14.8053 10.1296 14.8053C10.959 14.8053 11.202 15.2475 11.9251 15.2308C12.6693 15.2187 13.1382 14.5652 13.5854 13.8962C13.9184 13.4241 14.1746 12.9022 14.3446 12.35C13.9123 12.1671 13.5433 11.861 13.2837 11.4699C13.0242 11.0787 12.8855 10.6198 12.885 10.1504V10.1504Z" fill="white"/>
<path d="M11.5192 6.10542C11.9249 5.61831 12.1248 4.99222 12.0764 4.36011C11.4565 4.42522 10.8839 4.7215 10.4726 5.18991C10.2716 5.41875 10.1176 5.68496 10.0194 5.97335C9.92131 6.26173 9.88099 6.56663 9.90077 6.87061C10.2108 6.8738 10.5176 6.80659 10.7979 6.67405C11.0783 6.54151 11.3249 6.34708 11.5192 6.10542Z" fill="white"/>
<path d="M21.6517 13.5698H19.285L18.7167 15.2481H17.7142L19.9559 9.03906H20.9974L23.2391 15.2481H22.2196L21.6517 13.5698ZM19.5301 12.7954H21.4061L20.4813 10.0718H20.4555L19.5301 12.7954Z" fill="white"/>
<path d="M28.0805 12.985C28.0805 14.3917 27.3275 15.2955 26.1913 15.2955C25.9035 15.3106 25.6172 15.2443 25.3653 15.1042C25.1134 14.9641 24.9061 14.756 24.767 14.5035H24.7455V16.7457H23.8163V10.7213H24.7157V11.4742H24.7328C24.8783 11.223 25.0891 11.0159 25.343 10.875C25.5968 10.7341 25.884 10.6646 26.1742 10.6739C27.3231 10.6739 28.0805 11.5821 28.0805 12.985ZM27.1254 12.985C27.1254 12.0685 26.6517 11.4659 25.9291 11.4659C25.2191 11.4659 24.7416 12.0812 24.7416 12.985C24.7416 13.8971 25.2191 14.5079 25.9291 14.5079C26.6517 14.5079 27.1254 13.9098 27.1254 12.985Z" fill="white"/>
<path d="M33.0629 12.985C33.0629 14.3917 32.31 15.2955 31.1737 15.2955C30.8859 15.3106 30.5996 15.2443 30.3477 15.1042C30.0959 14.9641 29.8885 14.756 29.7494 14.5035H29.7279V16.7457H28.7987V10.7213H29.6981V11.4742H29.7152C29.8607 11.223 30.0715 11.0159 30.3254 10.875C30.5792 10.734 30.8665 10.6646 31.1566 10.6739C32.3056 10.6739 33.0629 11.5821 33.0629 12.985ZM32.1078 12.985C32.1078 12.0685 31.6342 11.4659 30.9115 11.4659C30.2016 11.4659 29.724 12.0812 29.724 12.985C29.724 13.8971 30.2016 14.5079 30.9115 14.5079C31.6342 14.5079 32.1078 13.9098 32.1078 12.985H32.1078Z" fill="white"/>
<path d="M36.3559 13.5181C36.4247 14.1338 37.0229 14.5381 37.8402 14.5381C38.6234 14.5381 39.1869 14.1338 39.1869 13.5786C39.1869 13.0967 38.8471 12.8081 38.0424 12.6104L37.2377 12.4165C36.0976 12.1411 35.5683 11.6079 35.5683 10.7427C35.5683 9.67139 36.5018 8.93555 37.8275 8.93555C39.1395 8.93555 40.039 9.67139 40.0692 10.7427H39.1312C39.0751 10.123 38.5629 9.74903 37.8143 9.74903C37.0658 9.74903 36.5536 10.1274 36.5536 10.6782C36.5536 11.1172 36.8807 11.3755 37.681 11.5732L38.3651 11.7412C39.639 12.0425 40.1683 12.5542 40.1683 13.4624C40.1683 14.624 39.243 15.3515 37.7714 15.3515C36.3944 15.3515 35.4647 14.6411 35.4047 13.518L36.3559 13.5181Z" fill="white"/>
<path d="M42.1737 9.6499V10.7212H43.0345V11.457H42.1737V13.9526C42.1737 14.3403 42.3461 14.521 42.7245 14.521C42.8267 14.5192 42.9287 14.512 43.0301 14.4995V15.2309C42.86 15.2627 42.6871 15.2771 42.514 15.2739C41.5975 15.2739 41.2401 14.9297 41.2401 14.0517V11.457H40.5819V10.7212H41.2401V9.6499H42.1737Z" fill="white"/>
<path d="M43.5331 12.9849C43.5331 11.5605 44.3719 10.6655 45.6801 10.6655C46.9926 10.6655 47.8275 11.5605 47.8275 12.9849C47.8275 14.4131 46.9969 15.3042 45.6801 15.3042C44.3636 15.3042 43.5331 14.4131 43.5331 12.9849ZM46.8807 12.9849C46.8807 12.0078 46.433 11.4312 45.68 11.4312C44.9271 11.4312 44.4799 12.0122 44.4799 12.9849C44.4799 13.9658 44.9271 14.5381 45.68 14.5381C46.433 14.5381 46.8807 13.9658 46.8807 12.9849H46.8807Z" fill="white"/>
<path d="M48.5936 10.7213H49.4799V11.4918H49.5014C49.5613 11.2511 49.7023 11.0384 49.9006 10.8895C50.0989 10.7406 50.3424 10.6644 50.5902 10.6739C50.6973 10.6735 50.8041 10.6851 50.9086 10.7086V11.5777C50.7734 11.5364 50.6324 11.5174 50.4911 11.5215C50.3561 11.5161 50.2215 11.5399 50.0966 11.5913C49.9717 11.6428 49.8594 11.7206 49.7674 11.8196C49.6754 11.9185 49.6059 12.0362 49.5637 12.1645C49.5215 12.2929 49.5075 12.4288 49.5228 12.563V15.2481H48.5936L48.5936 10.7213Z" fill="white"/>
<path d="M55.1927 13.9185C55.0677 14.7402 54.2675 15.3042 53.2435 15.3042C51.9266 15.3042 51.1093 14.4219 51.1093 13.0063C51.1093 11.5864 51.931 10.6655 53.2045 10.6655C54.4569 10.6655 55.2445 11.5259 55.2445 12.8984V13.2168H52.0472V13.2729C52.0325 13.4395 52.0533 13.6074 52.1084 13.7653C52.1635 13.9232 52.2516 14.0676 52.3668 14.1889C52.4819 14.3102 52.6216 14.4055 52.7765 14.4687C52.9313 14.5318 53.0979 14.5613 53.265 14.5552C53.4846 14.5757 53.705 14.5249 53.8933 14.4102C54.0817 14.2955 54.228 14.123 54.3104 13.9185L55.1927 13.9185ZM52.0516 12.5674H54.3148C54.3232 12.4176 54.3005 12.2677 54.2481 12.1271C54.1958 11.9865 54.1149 11.8582 54.0107 11.7503C53.9064 11.6424 53.781 11.5573 53.6422 11.5002C53.5035 11.443 53.3545 11.4152 53.2045 11.4185C53.0532 11.4176 52.9032 11.4466 52.7631 11.504C52.6231 11.5614 52.4958 11.6459 52.3887 11.7527C52.2815 11.8595 52.1965 11.9865 52.1387 12.1263C52.0808 12.2662 52.0512 12.4161 52.0516 12.5674V12.5674Z" fill="white"/>
<path d="M19.4136 4.36545C19.6084 4.35147 19.8039 4.3809 19.9859 4.45161C20.168 4.52233 20.3321 4.63257 20.4664 4.77438C20.6007 4.91619 20.7018 5.08604 20.7625 5.27168C20.8232 5.45731 20.8419 5.65411 20.8174 5.84787C20.8174 6.80099 20.3022 7.34887 19.4136 7.34887H18.3359V4.36545H19.4136ZM18.7993 6.92695H19.3618C19.501 6.93527 19.6403 6.91244 19.7696 6.86014C19.8989 6.80783 20.0148 6.72735 20.1091 6.62457C20.2033 6.52179 20.2735 6.39928 20.3144 6.26598C20.3553 6.13267 20.366 5.99191 20.3457 5.85395C20.3646 5.71653 20.3528 5.57664 20.3112 5.44431C20.2697 5.31198 20.1993 5.19048 20.1053 5.08851C20.0113 4.98655 19.8959 4.90664 19.7673 4.85453C19.6388 4.80241 19.5003 4.77937 19.3618 4.78705H18.7993V6.92695Z" fill="white"/>
<path d="M21.3408 6.22214C21.3267 6.07419 21.3436 5.9249 21.3905 5.78387C21.4375 5.64283 21.5133 5.51316 21.6133 5.40317C21.7133 5.29318 21.8351 5.2053 21.9711 5.14516C22.107 5.08502 22.254 5.05396 22.4026 5.05396C22.5512 5.05396 22.6982 5.08502 22.8342 5.14516C22.9701 5.2053 23.0919 5.29318 23.1919 5.40317C23.2919 5.51316 23.3678 5.64283 23.4147 5.78387C23.4616 5.9249 23.4785 6.07419 23.4644 6.22214C23.4788 6.37026 23.4621 6.51975 23.4153 6.66101C23.3685 6.80227 23.2926 6.93218 23.1927 7.04239C23.0927 7.15259 22.9707 7.24066 22.8346 7.30093C22.6986 7.3612 22.5514 7.39233 22.4026 7.39233C22.2538 7.39233 22.1066 7.3612 21.9706 7.30093C21.8345 7.24066 21.7126 7.15259 21.6126 7.04239C21.5126 6.93218 21.4367 6.80227 21.3899 6.66101C21.3431 6.51975 21.3264 6.37026 21.3408 6.22214V6.22214ZM23.0073 6.22214C23.0073 5.73411 22.7881 5.44871 22.4033 5.44871C22.0171 5.44871 21.7998 5.73411 21.7998 6.22215C21.7998 6.71409 22.0171 6.99729 22.4033 6.99729C22.7881 6.99729 23.0073 6.71213 23.0073 6.22214H23.0073Z" fill="white"/>
<path d="M26.2871 7.34888H25.8262L25.3608 5.69067H25.3257L24.8623 7.34888H24.4058L23.7852 5.09741H24.2358L24.6392 6.81541H24.6724L25.1353 5.09741H25.5615L26.0244 6.81541H26.0596L26.4609 5.09741H26.9053L26.2871 7.34888Z" fill="white"/>
<path d="M27.4272 5.09743H27.855V5.4551H27.8882C27.9445 5.32664 28.0395 5.21895 28.16 5.14705C28.2804 5.07515 28.4203 5.04261 28.5601 5.05397C28.6696 5.04574 28.7796 5.06226 28.8819 5.1023C28.9842 5.14235 29.0762 5.2049 29.151 5.28533C29.2259 5.36575 29.2817 5.46198 29.3143 5.56689C29.3469 5.6718 29.3554 5.7827 29.3394 5.89137V7.34887H28.895V6.00295C28.895 5.64114 28.7378 5.4612 28.4092 5.4612C28.3348 5.45774 28.2606 5.4704 28.1915 5.49831C28.1225 5.52623 28.0603 5.56874 28.0093 5.62293C27.9582 5.67713 27.9195 5.74172 27.8957 5.81228C27.8719 5.88285 27.8637 5.95772 27.8716 6.03176V7.3489H27.4272L27.4272 5.09743Z" fill="white"/>
<path d="M30.0474 4.21851H30.4917V7.34888H30.0474V4.21851Z" fill="white"/>
<path d="M31.1094 6.22219C31.0952 6.07422 31.1122 5.92493 31.1591 5.78389C31.206 5.64284 31.2819 5.51317 31.3819 5.40318C31.4819 5.29318 31.6038 5.2053 31.7397 5.14516C31.8756 5.08502 32.0226 5.05396 32.1713 5.05396C32.3199 5.05396 32.4669 5.08502 32.6029 5.14516C32.7388 5.2053 32.8607 5.29318 32.9606 5.40318C33.0606 5.51317 33.1365 5.64284 33.1834 5.78389C33.2304 5.92493 33.2473 6.07422 33.2332 6.22219C33.2476 6.3703 33.2308 6.5198 33.184 6.66106C33.1372 6.80232 33.0614 6.93223 32.9614 7.04243C32.8613 7.15263 32.7394 7.2407 32.6033 7.30096C32.4673 7.36123 32.3201 7.39236 32.1713 7.39236C32.0225 7.39236 31.8753 7.36123 31.7392 7.30096C31.6031 7.2407 31.4812 7.15263 31.3812 7.04243C31.2812 6.93223 31.2053 6.80232 31.1585 6.66106C31.1117 6.5198 31.095 6.3703 31.1094 6.22219V6.22219ZM32.7759 6.22219C32.7759 5.73415 32.5566 5.44875 32.1719 5.44875C31.7857 5.44875 31.5684 5.73415 31.5684 6.22219C31.5684 6.71414 31.7857 6.99734 32.1719 6.99734C32.5566 6.99733 32.7759 6.71218 32.7759 6.22219H32.7759Z" fill="white"/>
<path d="M33.7009 6.71216C33.7009 6.30688 34.0027 6.07324 34.5383 6.04004L35.1482 6.00488V5.81055C35.1482 5.57275 34.991 5.43848 34.6873 5.43848C34.4392 5.43848 34.2673 5.52954 34.218 5.68872H33.7878C33.8333 5.302 34.197 5.05396 34.7078 5.05396C35.2722 5.05396 35.5906 5.33496 35.5906 5.81055V7.34888H35.1628V7.03247H35.1277C35.0563 7.14597 34.9561 7.23849 34.8373 7.3006C34.7185 7.3627 34.5853 7.39216 34.4514 7.38597C34.3569 7.3958 34.2614 7.38572 34.171 7.35637C34.0806 7.32702 33.9974 7.27906 33.9267 7.21557C33.856 7.15209 33.7993 7.07449 33.7605 6.98778C33.7216 6.90107 33.7013 6.80718 33.7009 6.71216V6.71216ZM35.1482 6.51977V6.33154L34.5984 6.3667C34.2883 6.38745 34.1477 6.49292 34.1477 6.6914C34.1477 6.89404 34.3235 7.01196 34.5652 7.01196C34.636 7.01912 34.7076 7.01197 34.7756 6.99093C34.8436 6.96988 34.9066 6.93537 34.961 6.88945C35.0154 6.84353 35.06 6.78714 35.0922 6.72363C35.1243 6.66012 35.1434 6.59079 35.1482 6.51977V6.51977Z" fill="white"/>
<path d="M36.1746 6.22218C36.1746 5.51075 36.5403 5.06007 37.1091 5.06007C37.2498 5.05358 37.3895 5.08728 37.5117 5.15723C37.634 5.22718 37.7338 5.33048 37.7996 5.45507H37.8328V4.21851H38.2771V7.34888H37.8513V6.99316H37.8162C37.7454 7.11691 37.6421 7.21892 37.5174 7.28816C37.3928 7.35741 37.2516 7.39123 37.1091 7.38598C36.5364 7.38601 36.1746 6.93531 36.1746 6.22218ZM36.6336 6.22218C36.6336 6.69972 36.8587 6.98707 37.2351 6.98707C37.6096 6.98707 37.8411 6.69557 37.8411 6.22413C37.8411 5.75489 37.6072 5.45924 37.2351 5.45924C36.8611 5.45924 36.6335 5.74854 36.6335 6.22218H36.6336Z" fill="white"/>
<path d="M40.1155 6.22214C40.1013 6.07419 40.1183 5.9249 40.1652 5.78387C40.2121 5.64283 40.288 5.51316 40.388 5.40317C40.4879 5.29318 40.6098 5.2053 40.7457 5.14516C40.8816 5.08502 41.0286 5.05396 41.1773 5.05396C41.3259 5.05396 41.4729 5.08502 41.6088 5.14516C41.7447 5.2053 41.8666 5.29318 41.9666 5.40317C42.0665 5.51316 42.1424 5.64283 42.1893 5.78387C42.2363 5.9249 42.2532 6.07419 42.239 6.22214C42.2535 6.37026 42.2367 6.51975 42.1899 6.66101C42.1431 6.80227 42.0673 6.93218 41.9673 7.04239C41.8673 7.15259 41.7454 7.24066 41.6093 7.30093C41.4732 7.3612 41.3261 7.39233 41.1773 7.39233C41.0285 7.39233 40.8813 7.3612 40.7452 7.30093C40.6092 7.24066 40.4872 7.15259 40.3872 7.04239C40.2872 6.93218 40.2114 6.80227 40.1646 6.66101C40.1178 6.51975 40.1011 6.37026 40.1155 6.22214V6.22214ZM41.782 6.22214C41.782 5.73411 41.5628 5.44871 41.178 5.44871C40.7918 5.44871 40.5745 5.73411 40.5745 6.22215C40.5745 6.71409 40.7918 6.99729 41.178 6.99729C41.5628 6.99729 41.782 6.71213 41.782 6.22214Z" fill="white"/>
<path d="M42.8352 5.09743H43.2629V5.4551H43.2961C43.3525 5.32664 43.4475 5.21895 43.5679 5.14705C43.6883 5.07515 43.8282 5.04261 43.968 5.05397C44.0776 5.04574 44.1876 5.06226 44.2899 5.1023C44.3922 5.14235 44.4841 5.2049 44.559 5.28533C44.6338 5.36575 44.6896 5.46198 44.7222 5.56689C44.7548 5.6718 44.7634 5.7827 44.7473 5.89137V7.34887H44.303V6.00295C44.303 5.64114 44.1458 5.4612 43.8171 5.4612C43.7428 5.45774 43.6685 5.4704 43.5995 5.49831C43.5305 5.52623 43.4683 5.56874 43.4172 5.62293C43.3662 5.67713 43.3274 5.74172 43.3036 5.81228C43.2799 5.88285 43.2717 5.95772 43.2795 6.03176V7.3489H42.8352V5.09743Z" fill="white"/>
<path d="M47.2581 4.53687V5.10767H47.7459V5.48194H47.2581V6.63965C47.2581 6.87549 47.3552 6.97876 47.5764 6.97876C47.633 6.97858 47.6896 6.97515 47.7459 6.9685V7.33862C47.6661 7.3529 47.5852 7.36049 47.5042 7.36132C47.01 7.36132 46.8132 7.1875 46.8132 6.75342V5.48191H46.4558V5.10765H46.8132V4.53687H47.2581Z" fill="white"/>
<path d="M48.3528 4.21851H48.7932V5.45923H48.8284C48.8874 5.32957 48.985 5.22127 49.1079 5.1491C49.2307 5.07693 49.3729 5.04439 49.5149 5.05591C49.6238 5.04998 49.7328 5.06818 49.8339 5.1092C49.9351 5.15022 50.0259 5.21305 50.1 5.29322C50.174 5.37339 50.2295 5.46892 50.2624 5.57298C50.2953 5.67705 50.3048 5.7871 50.2903 5.89527V7.34888H49.8455V6.00488C49.8455 5.64526 49.678 5.46313 49.364 5.46313C49.2877 5.45687 49.2108 5.46737 49.139 5.49389C49.0671 5.52042 49.0018 5.56233 48.9478 5.6167C48.8939 5.67107 48.8524 5.73658 48.8264 5.80865C48.8003 5.88072 48.7904 5.95761 48.7971 6.03393V7.34887H48.3528L48.3528 4.21851Z" fill="white"/>
<path d="M52.8811 6.741C52.8207 6.94677 52.6899 7.12476 52.5115 7.24384C52.3332 7.36291 52.1187 7.41549 51.9055 7.39237C51.7571 7.39628 51.6097 7.36787 51.4735 7.30911C51.3372 7.25034 51.2154 7.16263 51.1164 7.05207C51.0175 6.9415 50.9438 6.81072 50.9004 6.66881C50.8571 6.5269 50.8452 6.37725 50.8654 6.23026C50.8457 6.08282 50.8578 5.93285 50.9011 5.79052C50.9443 5.64818 51.0176 5.5168 51.1161 5.40526C51.2145 5.29372 51.3358 5.20464 51.4716 5.14403C51.6075 5.08343 51.7548 5.05272 51.9035 5.05399C52.53 5.05399 52.9079 5.48199 52.9079 6.18899V6.34404H51.3181V6.36894C51.3111 6.45156 51.3215 6.53473 51.3486 6.6131C51.3756 6.69148 51.4188 6.76333 51.4752 6.82406C51.5317 6.88479 51.6002 6.93305 51.6764 6.96575C51.7526 6.99844 51.8348 7.01486 51.9177 7.01394C52.024 7.0267 52.1316 7.00756 52.227 6.95896C52.3224 6.91035 52.4012 6.83448 52.4533 6.74099L52.8811 6.741ZM51.3181 6.01542H52.4553C52.4609 5.93985 52.4506 5.86395 52.4251 5.79259C52.3996 5.72124 52.3595 5.656 52.3073 5.60107C52.2551 5.54614 52.192 5.50274 52.1221 5.47365C52.0521 5.44456 51.9768 5.43043 51.9011 5.43217C51.8242 5.4312 51.748 5.44563 51.6768 5.4746C51.6056 5.50358 51.5409 5.54651 51.4866 5.60086C51.4323 5.65522 51.3894 5.7199 51.3604 5.7911C51.3315 5.8623 51.3171 5.93857 51.3181 6.01542H51.3181Z" fill="white"/>
</g>
<defs>
<clipPath id="clip0_5180_45756">
<rect width="59.832" height="20" fill="white" transform="translate(0.500488)"/>
</clipPath>
</defs>
</svg>
