<svg width="25" height="24" viewBox="0 0 25 24" fill="none" xmlns="http://www.w3.org/2000/svg">
<path d="M24.6665 12C24.6665 5.37258 19.2939 0 12.6665 0C6.03908 0 0.666504 5.37258 0.666504 12C0.666504 17.9895 5.05473 22.954 10.7915 23.8542V15.4688H7.74463V12H10.7915V9.35625C10.7915 6.34875 12.583 4.6875 15.3241 4.6875C16.637 4.6875 18.0103 4.92188 18.0103 4.92188V7.875H16.4971C15.0064 7.875 14.5415 8.80001 14.5415 9.74899V12H17.8696L17.3376 15.4688H14.5415V23.8542C20.2783 22.954 24.6665 17.9895 24.6665 12Z" fill="#1877F2"/>
<path d="M17.3376 15.4688L17.8696 12H14.5415V9.74899C14.5415 8.80001 15.0064 7.875 16.4971 7.875H18.0103V4.92188C18.0103 4.92188 16.637 4.6875 15.3241 4.6875C12.583 4.6875 10.7915 6.34875 10.7915 9.35625V12H7.74463V15.4688H10.7915V23.8542C11.4024 23.9501 12.0286 24 12.6665 24C13.3044 24 13.9306 23.9501 14.5415 23.8542V15.4688H17.3376Z" fill="white"/>
</svg>
