<svg width="121" height="40" viewBox="0 0 121 40" fill="none" xmlns="http://www.w3.org/2000/svg">
<path d="M110.803 0.00013H10.2026C9.83595 0.00013 9.47365 0.00013 9.10792 0.00213C8.80177 0.00413 8.49806 0.00994 8.18897 0.01483C7.51748 0.0227318 6.84758 0.0818063 6.18507 0.19154C5.52349 0.303663 4.88264 0.515046 4.28419 0.81854C3.68647 1.1246 3.14031 1.5223 2.66554 1.9972C2.18827 2.47077 1.79043 3.01815 1.48732 3.61829C1.18337 4.21724 0.972609 4.85907 0.862319 5.52161C0.75098 6.18332 0.691067 6.85265 0.683119 7.52361C0.673839 7.83021 0.672859 8.13783 0.667969 8.44447V31.5587C0.672859 31.8692 0.673839 32.17 0.683119 32.4806C0.69107 33.1516 0.750982 33.8209 0.862319 34.4825C0.972305 35.1455 1.18308 35.7877 1.48732 36.3868C1.79029 36.985 2.18819 37.5302 2.66554 38.0011C3.13851 38.4781 3.68502 38.8761 4.28419 39.1798C4.88264 39.4841 5.52342 39.6968 6.18507 39.8106C6.84769 39.9195 7.51753 39.9786 8.18897 39.9874C8.49806 39.9942 8.80177 39.9981 9.10792 39.9981C9.47364 40.0001 9.83597 40.0001 10.2026 40.0001H110.803C111.162 40.0001 111.527 40.0001 111.887 39.9981C112.191 39.9981 112.504 39.9942 112.809 39.9874C113.479 39.9791 114.147 39.92 114.809 39.8106C115.472 39.696 116.116 39.4834 116.717 39.1798C117.315 38.8759 117.861 38.478 118.334 38.0011C118.81 37.5284 119.209 36.9836 119.516 36.3868C119.818 35.7872 120.026 35.1451 120.135 34.4825C120.246 33.8208 120.308 33.1516 120.32 32.4806C120.324 32.17 120.324 31.8692 120.324 31.5587C120.332 31.1954 120.332 30.8341 120.332 30.4649V9.53626C120.332 9.17005 120.332 8.80677 120.324 8.44447C120.324 8.13783 120.324 7.83021 120.32 7.52357C120.308 6.85255 120.246 6.18337 120.135 5.52157C120.026 4.85941 119.817 4.21763 119.516 3.61825C118.898 2.41533 117.92 1.43616 116.717 0.81845C116.115 0.515697 115.472 0.30437 114.809 0.19145C114.148 0.0812328 113.479 0.0221378 112.809 0.01469C112.504 0.00981 112.191 0.00395 111.887 0.002C111.527 0 111.162 0 110.803 0V0.00013Z" fill="#A6A6A6"/>
<path d="M9.11284 39.125C8.80816 39.125 8.51084 39.1211 8.20855 39.1143C7.58233 39.1061 6.95757 39.0516 6.33941 38.9512C5.763 38.8519 5.20461 38.6673 4.68267 38.4033C4.16551 38.1415 3.69382 37.7983 3.28567 37.3867C2.87161 36.98 2.52688 36.5082 2.26516 35.9902C2.00054 35.4688 1.81742 34.9099 1.72216 34.333C1.61928 33.7131 1.56362 33.0863 1.55566 32.458C1.54932 32.2471 1.54102 31.5449 1.54102 31.5449V8.44434C1.54102 8.44434 1.54986 7.75293 1.55571 7.5498C1.56333 6.92248 1.61867 6.29665 1.72124 5.67773C1.81667 5.09925 1.99994 4.53875 2.2647 4.01563C2.52546 3.49794 2.86827 3.02586 3.27984 2.61768C3.69094 2.20562 4.16414 1.8606 4.68218 1.59521C5.20292 1.33209 5.76025 1.14873 6.3355 1.05127C6.95569 0.949836 7.58262 0.894996 8.21101 0.88721L9.11333 0.875H111.882L112.795 0.8877C113.418 0.895099 114.039 0.94945 114.653 1.05029C115.234 1.14898 115.798 1.33362 116.324 1.59814C117.362 2.13299 118.207 2.97916 118.739 4.01807C119 4.53758 119.18 5.09351 119.274 5.66699C119.378 6.29099 119.436 6.92174 119.448 7.5542C119.451 7.8374 119.451 8.1416 119.451 8.44434C119.459 8.81934 119.459 9.17627 119.459 9.53613V30.4648C119.459 30.8281 119.459 31.1826 119.451 31.54C119.451 31.8652 119.451 32.1631 119.447 32.4697C119.436 33.0909 119.378 33.7104 119.276 34.3232C119.183 34.9043 119.001 35.4675 118.736 35.9932C118.473 36.5056 118.13 36.9733 117.721 37.3789C117.312 37.7927 116.84 38.1379 116.321 38.4014C115.796 38.6674 115.234 38.8527 114.653 38.9512C114.035 39.0522 113.41 39.1067 112.784 39.1143C112.491 39.1211 112.185 39.125 111.887 39.125L110.803 39.127L9.11284 39.125Z" fill="white"/>
<path d="M25.437 20.3013C25.4477 19.4666 25.6694 18.6483 26.0814 17.9223C26.4935 17.1964 27.0824 16.5864 27.7935 16.1492C27.3418 15.5041 26.7458 14.9731 26.053 14.5986C25.3602 14.224 24.5896 14.0162 23.8024 13.9916C22.1231 13.8153 20.4952 14.9964 19.6395 14.9964C18.7672 14.9964 17.4497 14.0091 16.031 14.0383C15.1133 14.0679 14.2189 14.3348 13.4351 14.8128C12.6512 15.2909 12.0045 15.9638 11.558 16.7661C9.62404 20.1145 11.0666 25.0356 12.9192 27.7422C13.8461 29.0676 14.9294 30.548 16.3469 30.4955C17.7339 30.438 18.252 29.611 19.9263 29.611C21.585 29.611 22.0711 30.4955 23.5173 30.4621C25.0057 30.438 25.9434 29.1309 26.8378 27.793C27.5038 26.8486 28.0162 25.8049 28.3562 24.7005C27.4915 24.3347 26.7536 23.7226 26.2345 22.9403C25.7153 22.158 25.438 21.2402 25.437 20.3013Z" fill="#1D1934"/>
<path d="M22.7055 12.2113C23.5171 11.2371 23.9169 9.98494 23.8201 8.7207C22.5802 8.85092 21.435 9.44348 20.6125 10.3803C20.2103 10.838 19.9023 11.3704 19.7061 11.9472C19.5099 12.524 19.4292 13.1337 19.4688 13.7417C20.0889 13.7481 20.7024 13.6137 21.2631 13.3486C21.8237 13.0835 22.3169 12.6946 22.7055 12.2113Z" fill="#1D1934"/>
<path d="M42.9707 27.1397H38.2373L37.1006 30.4961H35.0957L39.5791 18.0781H41.6621L46.1455 30.4961H44.1064L42.9707 27.1397ZM38.7275 25.5908H42.4795L40.6299 20.1436H40.5782L38.7275 25.5908Z" fill="#1D1934"/>
<path d="M55.8282 25.9695C55.8282 28.7829 54.3223 30.5905 52.0498 30.5905C51.4742 30.6207 50.9017 30.4881 50.3979 30.2079C49.8941 29.9278 49.4794 29.5114 49.2012 29.0065H49.1582V33.4909H47.2998V21.4421H49.0987V22.948H49.1328C49.4238 22.4455 49.8455 22.0313 50.3532 21.7495C50.8608 21.4676 51.4353 21.3287 52.0157 21.3474C54.3135 21.3474 55.8282 23.1638 55.8282 25.9695ZM53.918 25.9695C53.918 24.1365 52.9707 22.9314 51.5254 22.9314C50.1055 22.9314 49.1504 24.1618 49.1504 25.9695C49.1504 27.7937 50.1055 29.0154 51.5254 29.0154C52.9707 29.0154 53.918 27.8191 53.918 25.9695Z" fill="#1D1934"/>
<path d="M65.793 25.9694C65.793 28.7829 64.2871 30.5905 62.0147 30.5905C61.439 30.6206 60.8665 30.488 60.3627 30.2079C59.8589 29.9278 59.4442 29.5114 59.166 29.0065H59.123V33.4909H57.2646V21.4421H59.0635V22.948H59.0976C59.3886 22.4455 59.8103 22.0313 60.318 21.7495C60.8256 21.4676 61.4001 21.3287 61.9805 21.3474C64.2783 21.3474 65.793 23.1638 65.793 25.9694ZM63.8828 25.9694C63.8828 24.1364 62.9356 22.9314 61.4903 22.9314C60.0703 22.9314 59.1153 24.1618 59.1153 25.9694C59.1153 27.7937 60.0703 29.0153 61.4903 29.0153C62.9356 29.0153 63.8828 27.8191 63.8828 25.9694H63.8828Z" fill="#1D1934"/>
<path d="M72.3789 27.0362C72.5166 28.2676 73.7129 29.0762 75.3477 29.0762C76.9141 29.0762 78.041 28.2676 78.041 27.1572C78.041 26.1934 77.3614 25.6162 75.752 25.2207L74.1426 24.833C71.8623 24.2822 70.8037 23.2158 70.8037 21.4854C70.8037 19.3428 72.6709 17.8711 75.3223 17.8711C77.9463 17.8711 79.7451 19.3428 79.8057 21.4854H77.9297C77.8174 20.2461 76.793 19.4981 75.2959 19.4981C73.7988 19.4981 72.7744 20.2549 72.7744 21.3565C72.7744 22.2344 73.4287 22.751 75.0293 23.1465L76.3975 23.4824C78.9453 24.0849 80.0039 25.1084 80.0039 26.9248C80.0039 29.248 78.1533 30.7031 75.21 30.7031C72.4561 30.7031 70.5967 29.2822 70.4766 27.0361L72.3789 27.0362Z" fill="#1D1934"/>
<path d="M84.0146 19.2998V21.4424H85.7363V22.9141H84.0146V27.9053C84.0146 28.6807 84.3594 29.042 85.1162 29.042C85.3206 29.0384 85.5247 29.0241 85.7275 28.999V30.4619C85.3873 30.5255 85.0414 30.5543 84.6953 30.5478C82.8623 30.5478 82.1475 29.8593 82.1475 28.1035V22.9141H80.8311V21.4424H82.1474V19.2998H84.0146Z" fill="#1D1934"/>
<path d="M86.7334 25.9697C86.7334 23.1211 88.4111 21.3311 91.0273 21.3311C93.6523 21.3311 95.3223 23.1211 95.3223 25.9697C95.3223 28.8262 93.6611 30.6084 91.0273 30.6084C88.3945 30.6084 86.7334 28.8262 86.7334 25.9697ZM93.4287 25.9697C93.4287 24.0156 92.5332 22.8623 91.0273 22.8623C89.5215 22.8623 88.6269 24.0244 88.6269 25.9697C88.6269 27.9316 89.5215 29.0762 91.0273 29.0762C92.5332 29.0762 93.4287 27.9316 93.4287 25.9697H93.4287Z" fill="#1D1934"/>
<path d="M96.8545 21.442H98.627V22.983H98.67C98.7899 22.5017 99.0718 22.0764 99.4684 21.7785C99.865 21.4806 100.352 21.3284 100.848 21.3473C101.062 21.3465 101.275 21.3698 101.484 21.4166V23.1549C101.214 23.0723 100.932 23.0343 100.649 23.0426C100.379 23.0316 100.11 23.0792 99.8604 23.1821C99.6106 23.285 99.386 23.4408 99.202 23.6386C99.018 23.8365 98.8791 24.0719 98.7946 24.3286C98.7102 24.5852 98.6823 24.8571 98.7129 25.1256V30.4957H96.8545L96.8545 21.442Z" fill="#1D1934"/>
<path d="M110.053 27.8369C109.803 29.4805 108.202 30.6084 106.154 30.6084C103.521 30.6084 101.886 28.8437 101.886 26.0127C101.886 23.1729 103.529 21.3311 106.076 21.3311C108.581 21.3311 110.156 23.0518 110.156 25.7969V26.4336H103.762V26.5459C103.732 26.8791 103.774 27.2148 103.884 27.5306C103.994 27.8464 104.17 28.1352 104.401 28.3778C104.631 28.6203 104.91 28.8111 105.22 28.9374C105.53 29.0637 105.863 29.1226 106.197 29.1103C106.636 29.1515 107.077 29.0498 107.454 28.8203C107.831 28.5909 108.123 28.246 108.288 27.8369L110.053 27.8369ZM103.771 25.1348H108.297C108.314 24.8352 108.268 24.5354 108.163 24.2541C108.059 23.9729 107.897 23.7164 107.689 23.5006C107.48 23.2849 107.229 23.1145 106.952 23.0003C106.674 22.8861 106.376 22.8305 106.076 22.8369C105.774 22.8351 105.474 22.8933 105.194 23.008C104.913 23.1227 104.659 23.2918 104.445 23.5054C104.23 23.7191 104.06 23.973 103.945 24.2527C103.829 24.5323 103.77 24.8321 103.771 25.1348V25.1348Z" fill="#1D1934"/>
<path d="M38.4941 8.7304C38.8838 8.70244 39.2747 8.7613 39.6388 8.90274C40.0029 9.04417 40.3311 9.26465 40.5997 9.54828C40.8683 9.8319 41.0706 10.1716 41.192 10.5429C41.3134 10.9141 41.3509 11.3077 41.3018 11.6952C41.3018 13.6015 40.2715 14.6972 38.4941 14.6972H36.3389V8.7304H38.4941ZM37.2656 13.8534H38.3906C38.669 13.87 38.9476 13.8244 39.2062 13.7198C39.4647 13.6152 39.6967 13.4542 39.8852 13.2487C40.0737 13.0431 40.2139 12.7981 40.2958 12.5315C40.3777 12.2648 40.399 11.9833 40.3584 11.7074C40.3961 11.4326 40.3725 11.1528 40.2894 10.8881C40.2063 10.6235 40.0657 10.3805 39.8776 10.1765C39.6896 9.97261 39.4587 9.8128 39.2016 9.70856C38.9445 9.60433 38.6676 9.55824 38.3906 9.57361H37.2656V13.8534Z" fill="#1D1934"/>
<path d="M42.3489 12.4438C42.3206 12.1479 42.3545 11.8493 42.4483 11.5672C42.5421 11.2852 42.6939 11.0258 42.8938 10.8059C43.0938 10.5859 43.3375 10.4101 43.6093 10.2898C43.8812 10.1696 44.1752 10.1074 44.4724 10.1074C44.7697 10.1074 45.0637 10.1696 45.3356 10.2898C45.6074 10.4101 45.8511 10.5859 46.0511 10.8059C46.251 11.0258 46.4028 11.2852 46.4966 11.5672C46.5904 11.8493 46.6243 12.1479 46.596 12.4438C46.6248 12.74 46.5914 13.039 46.4978 13.3215C46.4042 13.6041 46.2525 13.8639 46.0525 14.0843C45.8525 14.3047 45.6086 14.4808 45.3365 14.6014C45.0644 14.7219 44.7701 14.7842 44.4724 14.7842C44.1748 14.7842 43.8805 14.7219 43.6084 14.6014C43.3362 14.4808 43.0924 14.3047 42.8924 14.0843C42.6924 13.8639 42.5407 13.6041 42.4471 13.3215C42.3535 13.039 42.3201 12.74 42.3489 12.4438ZM45.6819 12.4438C45.6819 11.4677 45.2434 10.8969 44.4739 10.8969C43.7015 10.8969 43.2669 11.4677 43.2669 12.4438C43.2669 13.4277 43.7015 13.9941 44.4739 13.9941C45.2435 13.9941 45.6819 13.4238 45.6819 12.4438H45.6819Z" fill="#1D1934"/>
<path d="M52.2412 14.6973H51.3193L50.3887 11.3809H50.3184L49.3916 14.6973H48.4785L47.2373 10.1943H48.1387L48.9453 13.6303H49.0117L49.9375 10.1943H50.79L51.7158 13.6303H51.7861L52.5889 10.1943H53.4775L52.2412 14.6973Z" fill="#1D1934"/>
<path d="M54.5215 10.1939H55.377V10.9092H55.4434C55.556 10.6523 55.746 10.4369 55.9869 10.2931C56.2278 10.1493 56.5075 10.0842 56.7871 10.107C57.0062 10.0905 57.2262 10.1235 57.4308 10.2036C57.6354 10.2837 57.8194 10.4088 57.969 10.5697C58.1187 10.7305 58.2303 10.923 58.2955 11.1328C58.3607 11.3426 58.3779 11.5644 58.3457 11.7818V14.6968H57.457V12.0049C57.457 11.2813 57.1426 10.9214 56.4854 10.9214C56.3366 10.9145 56.1881 10.9398 56.05 10.9957C55.912 11.0515 55.7876 11.1365 55.6855 11.2449C55.5834 11.3533 55.5059 11.4825 55.4584 11.6236C55.4108 11.7647 55.3944 11.9145 55.4102 12.0625V14.6968H54.5215L54.5215 10.1939Z" fill="#1D1934"/>
<path d="M59.7617 8.43652H60.6504V14.6973H59.7617V8.43652Z" fill="#1D1934"/>
<path d="M61.886 12.4439C61.8577 12.1479 61.8916 11.8494 61.9854 11.5673C62.0793 11.2852 62.2311 11.0259 62.4311 10.8059C62.631 10.5859 62.8747 10.4101 63.1466 10.2898C63.4185 10.1696 63.7125 10.1074 64.0098 10.1074C64.3071 10.1074 64.6011 10.1696 64.8729 10.2898C65.1448 10.4101 65.3885 10.5859 65.5885 10.8059C65.7885 11.0259 65.9402 11.2852 66.0341 11.5673C66.128 11.8494 66.1618 12.1479 66.1336 12.4439C66.1624 12.7401 66.1289 13.0391 66.0353 13.3216C65.9416 13.6042 65.79 13.864 65.5899 14.0844C65.3899 14.3048 65.146 14.4809 64.8739 14.6014C64.6017 14.722 64.3074 14.7842 64.0098 14.7842C63.7121 14.7842 63.4178 14.722 63.1457 14.6014C62.8735 14.4809 62.6296 14.3048 62.4296 14.0844C62.2296 13.864 62.0779 13.6042 61.9843 13.3216C61.8907 13.0391 61.8572 12.7401 61.886 12.4439ZM65.219 12.4439C65.219 11.4678 64.7805 10.897 64.011 10.897C63.2385 10.897 62.804 11.4678 62.804 12.4439C62.804 13.4278 63.2386 13.9942 64.011 13.9942C64.7805 13.9942 65.219 13.4239 65.219 12.4439H65.219Z" fill="#1D1934"/>
<path d="M67.0684 13.4238C67.0684 12.6133 67.6719 12.146 68.7432 12.0796L69.9629 12.0093V11.6206C69.9629 11.145 69.6484 10.8765 69.041 10.8765C68.5449 10.8765 68.2012 11.0586 68.1025 11.377H67.2422C67.333 10.6035 68.0606 10.1074 69.082 10.1074C70.2109 10.1074 70.8477 10.6694 70.8477 11.6206V14.6973H69.9922V14.0645H69.9219C69.7792 14.2914 69.5788 14.4765 69.3411 14.6007C69.1035 14.7249 68.8372 14.7838 68.5693 14.7715C68.3803 14.7911 68.1892 14.7709 68.0085 14.7122C67.8277 14.6536 67.6613 14.5576 67.5199 14.4307C67.3784 14.3037 67.2652 14.1485 67.1874 13.9751C67.1097 13.8017 67.0691 13.6139 67.0684 13.4238ZM69.9629 13.0391V12.6626L68.8633 12.7329C68.2432 12.7744 67.9619 12.9853 67.9619 13.3823C67.9619 13.7876 68.3135 14.0234 68.7969 14.0234C68.9386 14.0378 69.0816 14.0235 69.2176 13.9814C69.3536 13.9393 69.4798 13.8703 69.5886 13.7784C69.6974 13.6866 69.7866 13.5738 69.8509 13.4468C69.9152 13.3198 69.9533 13.1811 69.9629 13.0391Z" fill="#1D1934"/>
<path d="M72.0156 12.4439C72.0156 11.021 72.7471 10.1196 73.8848 10.1196C74.1662 10.1067 74.4455 10.1741 74.69 10.314C74.9345 10.4539 75.1342 10.6605 75.2656 10.9096H75.332V8.43652H76.2207V14.6973H75.3691V13.9858H75.2988C75.1572 14.2333 74.9506 14.4374 74.7014 14.5758C74.4521 14.7143 74.1697 14.782 73.8848 14.7715C72.7393 14.7715 72.0156 13.8701 72.0156 12.4439ZM72.9336 12.4439C72.9336 13.3989 73.3838 13.9737 74.1368 13.9737C74.8858 13.9737 75.3487 13.3907 75.3487 12.4478C75.3487 11.5093 74.8809 10.918 74.1368 10.918C73.3887 10.918 72.9336 11.4966 72.9336 12.4439H72.9336Z" fill="#1D1934"/>
<path d="M79.8977 12.4438C79.8694 12.1479 79.9033 11.8493 79.9971 11.5672C80.091 11.2852 80.2427 11.0258 80.4427 10.8059C80.6426 10.5859 80.8863 10.4101 81.1582 10.2898C81.43 10.1696 81.724 10.1074 82.0213 10.1074C82.3185 10.1074 82.6125 10.1696 82.8844 10.2898C83.1562 10.4101 83.3999 10.5859 83.5999 10.8059C83.7998 11.0258 83.9516 11.2852 84.0454 11.5672C84.1393 11.8493 84.1731 12.1479 84.1448 12.4438C84.1737 12.74 84.1402 13.039 84.0466 13.3215C83.953 13.6041 83.8014 13.8639 83.6014 14.0843C83.4014 14.3047 83.1575 14.4808 82.8854 14.6014C82.6132 14.7219 82.3189 14.7842 82.0213 14.7842C81.7237 14.7842 81.4293 14.7219 81.1572 14.6014C80.8851 14.4808 80.6412 14.3047 80.4412 14.0843C80.2412 13.8639 80.0895 13.6041 79.9959 13.3215C79.9023 13.039 79.8689 12.74 79.8977 12.4438ZM83.2307 12.4438C83.2307 11.4677 82.7923 10.8969 82.0227 10.8969C81.2503 10.8969 80.8157 11.4677 80.8157 12.4438C80.8157 13.4277 81.2503 13.9941 82.0227 13.9941C82.7923 13.9941 83.2307 13.4238 83.2307 12.4438Z" fill="#1D1934"/>
<path d="M85.3369 10.1939H86.1924V10.9092H86.2588C86.3715 10.6523 86.5615 10.4369 86.8023 10.2931C87.0432 10.1493 87.3229 10.0842 87.6025 10.107C87.8216 10.0905 88.0416 10.1235 88.2462 10.2036C88.4508 10.2837 88.6348 10.4088 88.7845 10.5697C88.9342 10.7305 89.0457 10.923 89.1109 11.1328C89.1761 11.3426 89.1933 11.5644 89.1611 11.7818V14.6968H88.2725V12.0049C88.2725 11.2813 87.958 10.9214 87.3008 10.9214C87.152 10.9145 87.0035 10.9398 86.8655 10.9957C86.7274 11.0515 86.6031 11.1365 86.5009 11.2449C86.3988 11.3533 86.3213 11.4825 86.2738 11.6236C86.2263 11.7647 86.2098 11.9145 86.2256 12.0625V14.6968H85.3369V10.1939Z" fill="#1D1934"/>
<path d="M94.1826 9.07324V10.2148H95.1582V10.9634H94.1826V13.2788C94.1826 13.7505 94.377 13.957 94.8193 13.957C94.9326 13.9567 95.0457 13.9498 95.1582 13.9365V14.6768C94.9986 14.7053 94.8369 14.7205 94.6748 14.7222C93.6865 14.7222 93.293 14.3745 93.293 13.5063V10.9633H92.5781V10.2148H93.293V9.07324H94.1826Z" fill="#1D1934"/>
<path d="M96.373 8.43652H97.2539V10.918H97.3242C97.4423 10.6587 97.6376 10.4421 97.8833 10.2977C98.129 10.1534 98.4132 10.0883 98.6972 10.1113C98.9152 10.0995 99.1331 10.1359 99.3353 10.2179C99.5376 10.2999 99.7193 10.4256 99.8674 10.586C100.016 10.7463 100.126 10.9373 100.192 11.1455C100.258 11.3536 100.277 11.5737 100.248 11.79V14.6973H99.3584V12.0093C99.3584 11.29 99.0234 10.9258 98.3955 10.9258C98.2428 10.9132 98.0892 10.9342 97.9454 10.9873C97.8016 11.0404 97.6712 11.1242 97.5632 11.2329C97.4552 11.3417 97.3723 11.4727 97.3202 11.6168C97.2681 11.761 97.2482 11.9147 97.2618 12.0674V14.6973H96.3731L96.373 8.43652Z" fill="#1D1934"/>
<path d="M105.429 13.4815C105.309 13.8931 105.047 14.249 104.69 14.4872C104.334 14.7253 103.905 14.8305 103.478 14.7842C103.182 14.7921 102.887 14.7353 102.614 14.6177C102.342 14.5002 102.098 14.3248 101.9 14.1036C101.702 13.8825 101.555 13.6209 101.468 13.3371C101.381 13.0533 101.358 12.754 101.398 12.46C101.359 12.1652 101.383 11.8652 101.469 11.5805C101.556 11.2959 101.703 11.0331 101.899 10.81C102.096 10.587 102.339 10.4088 102.61 10.2876C102.882 10.1664 103.177 10.105 103.474 10.1075C104.727 10.1075 105.483 10.9635 105.483 12.3775V12.6876H102.303V12.7374C102.289 12.9026 102.31 13.069 102.364 13.2257C102.418 13.3825 102.505 13.5262 102.618 13.6476C102.731 13.7691 102.868 13.8656 103.02 13.931C103.172 13.9964 103.337 14.0292 103.503 14.0274C103.715 14.0529 103.931 14.0146 104.121 13.9174C104.312 13.8202 104.47 13.6685 104.574 13.4815L105.429 13.4815ZM102.303 12.0303H104.578C104.589 11.8792 104.568 11.7274 104.517 11.5847C104.467 11.442 104.386 11.3115 104.282 11.2016C104.177 11.0918 104.051 11.005 103.911 10.9468C103.771 10.8886 103.621 10.8604 103.469 10.8638C103.316 10.8619 103.163 10.8908 103.021 10.9487C102.878 11.0067 102.749 11.0925 102.64 11.2012C102.532 11.3099 102.446 11.4393 102.388 11.5817C102.33 11.7241 102.301 11.8766 102.303 12.0303H102.303Z" fill="#1D1934"/>
</svg>
