<svg width="68" height="20" viewBox="0 0 68 20" fill="none" xmlns="http://www.w3.org/2000/svg">
<g clip-path="url(#clip0_5180_45747)">
<path d="M64.9992 20.0001H2.5013C1.12631 20.0001 0.00134277 18.8751 0.00134277 17.5002V2.50044C0.00134277 1.12546 1.12631 0.000488281 2.5013 0.000488281H64.9992C66.3742 0.000488281 67.4991 1.12546 67.4991 2.50044V17.5002C67.4991 18.8751 66.3742 20.0001 64.9992 20.0001Z" fill="#100F0D"/>
<path d="M64.9992 0.000488281H2.5013C1.12631 0.000488281 0.00134277 1.12546 0.00134277 2.50044V17.5002C0.00134277 18.8751 1.12631 20.0001 2.5013 20.0001H64.9992C66.3742 20.0001 67.4991 18.8751 67.4991 17.5002V2.50044C67.4991 1.12546 66.3742 0.000488281 64.9992 0.000488281V0.000488281ZM64.9992 0.400278C66.1572 0.400278 67.0992 1.34247 67.0992 2.50044V17.5002C67.0992 18.6581 66.1572 19.6003 64.9992 19.6003H2.5013C1.34333 19.6003 0.401545 18.6581 0.401545 17.5002V2.50044C0.401545 1.34247 1.34333 0.400278 2.5013 0.400278H64.9992" fill="#A2A2A1"/>
<path d="M53.4678 15.0001H54.4008V8.74917H53.4678V15.0001ZM61.8712 11.0011L60.8017 13.711H60.7698L59.6598 11.0011H58.6548L60.3198 14.7886L59.3703 16.8955H60.3433L62.9088 11.0012L61.8712 11.0011ZM56.5799 14.2901C56.2749 14.2901 55.8484 14.1371 55.8484 13.7592C55.8484 13.2768 56.3795 13.0918 56.8374 13.0918C57.2474 13.0918 57.4409 13.1801 57.6899 13.3008C57.6174 13.8799 57.119 14.29 56.58 14.29L56.5799 14.2901ZM56.6929 10.8643C56.0174 10.8643 55.3179 11.162 55.0284 11.8214L55.8564 12.1671C56.0334 11.8214 56.3629 11.7089 56.7089 11.7089C57.1914 11.7089 57.6819 11.9981 57.6899 12.513V12.5772C57.5209 12.4807 57.1589 12.336 56.7169 12.336C55.8239 12.336 54.9155 12.8264 54.9155 13.7432C54.9155 14.5795 55.6475 15.1184 56.4674 15.1184C57.0944 15.1184 57.4409 14.8369 57.6574 14.5071H57.6899V14.9898H58.5909V12.5932C58.5909 11.4835 57.7619 10.8643 56.6929 10.8643V10.8643ZM50.9269 11.762H49.5999V9.61948H50.9269C51.6244 9.61948 52.0204 10.1968 52.0204 10.6907C52.0204 11.1751 51.6244 11.762 50.9269 11.762ZM50.9029 8.74932H48.6674V15.0002H49.5999V12.6321H50.9029C51.9369 12.6321 52.9534 11.8837 52.9534 10.6909C52.9534 9.49839 51.9369 8.74958 50.9029 8.74958L50.9029 8.74932ZM38.7127 14.2911C38.0681 14.2911 37.5287 13.7513 37.5287 13.0105C37.5287 12.2611 38.0681 11.7136 38.7127 11.7136C39.349 11.7136 39.8484 12.2611 39.8484 13.0105C39.8484 13.7513 39.349 14.2911 38.7127 14.2911ZM39.784 11.351H39.7517C39.5424 11.1013 39.1394 10.8758 38.6322 10.8758C37.5687 10.8758 36.5942 11.8103 36.5942 13.0105C36.5942 14.2025 37.5687 15.1288 38.6322 15.1288C39.1394 15.1288 39.5423 14.9032 39.7517 14.6456H39.784V14.9514C39.784 15.7653 39.349 16.2 38.6482 16.2C38.0765 16.2 37.7221 15.7893 37.577 15.443L36.7635 15.7813C36.9969 16.3449 37.617 17.0379 38.6483 17.0379C39.7439 17.0379 40.6703 16.3933 40.6703 14.8225V11.0046H39.784L39.784 11.351ZM41.3148 14.9999H42.2488V8.74898H41.3148V14.9999ZM43.6263 12.9378C43.6023 12.1162 44.263 11.6974 44.738 11.6974C45.1087 11.6974 45.4225 11.8827 45.5276 12.1484L43.6263 12.9378ZM46.526 12.2289C46.3489 11.7539 45.8093 10.8758 44.7058 10.8758C43.6101 10.8758 42.6999 11.7376 42.6999 13.0023C42.6999 14.1945 43.6023 15.1288 44.8103 15.1288C45.7849 15.1288 46.3489 14.5329 46.5827 14.1864L45.8577 13.7031C45.6159 14.0576 45.2858 14.2911 44.8103 14.2911C44.3353 14.2911 43.9968 14.0736 43.7796 13.6467L46.6227 12.4707L46.526 12.2289ZM23.8725 11.5283V12.4304H26.0312C25.9668 12.9379 25.7976 13.3083 25.5398 13.5662C25.2256 13.8802 24.7342 14.2267 23.8725 14.2267C22.5434 14.2267 21.5044 13.1554 21.5044 11.8263C21.5044 10.4972 22.5434 9.42583 23.8725 9.42583C24.5894 9.42583 25.1129 9.70782 25.4996 10.0703L26.1361 9.43381C25.5962 8.91837 24.8795 8.52368 23.8725 8.52368C22.0518 8.52368 20.5214 10.0058 20.5214 11.8263C20.5214 13.6466 22.0518 15.1288 23.8725 15.1288C24.8551 15.1288 25.5963 14.8066 26.1761 14.2025C26.7722 13.6064 26.9576 12.7687 26.9576 12.092C26.9576 11.8828 26.9413 11.6895 26.9091 11.5283H23.8725ZM29.4121 14.2911C28.7675 14.2911 28.2117 13.7595 28.2117 13.0023C28.2117 12.2371 28.7675 11.7136 29.4121 11.7136C30.0564 11.7136 30.6122 12.2371 30.6122 13.0023C30.6122 13.7595 30.0564 14.2911 29.4121 14.2911ZM29.4121 10.8758C28.2357 10.8758 27.2773 11.7699 27.2773 13.0023C27.2773 14.2267 28.2357 15.1288 29.4121 15.1288C30.588 15.1288 31.5466 14.2267 31.5466 13.0023C31.5466 11.7699 30.588 10.8758 29.4121 10.8758V10.8758ZM34.0685 14.2911C33.4244 14.2911 32.8684 13.7595 32.8684 13.0023C32.8684 12.2371 33.4244 11.7136 34.0685 11.7136C34.713 11.7136 35.2687 12.2371 35.2687 13.0023C35.2687 13.7595 34.713 14.2911 34.0685 14.2911ZM34.0685 10.8758C32.8925 10.8758 31.9341 11.7699 31.9341 13.0023C31.9341 14.2267 32.8925 15.1288 34.0685 15.1288C35.2449 15.1288 36.2032 14.2267 36.2032 13.0023C36.2032 11.7699 35.2449 10.8758 34.0685 10.8758" fill="white"/>
<path d="M10.3583 9.71223L5.03552 15.362C5.03572 15.3632 5.03612 15.3641 5.03631 15.3653C5.19956 15.9789 5.75991 16.4306 6.42494 16.4306C6.69079 16.4306 6.94038 16.3587 7.15444 16.2325L7.17143 16.2226L13.1632 12.7651L10.3586 9.71216" fill="#EB3131"/>
<path d="M15.7438 8.75019L15.7387 8.7467L13.1518 7.24707L10.2374 9.84044L13.162 12.7646L15.7351 11.2799C16.1863 11.0363 16.4925 10.5607 16.4925 10.0123C16.4925 9.4678 16.1904 8.99458 15.7437 8.75023" fill="#F6B60B"/>
<path d="M5.03478 4.63867C5.00278 4.75667 4.98596 4.88027 4.98596 5.00862V14.9923C4.98596 15.1204 5.00258 15.2444 5.03498 15.362L10.5415 9.8566L5.03498 4.63881" fill="#5778C5"/>
<path d="M10.3977 10.0005L13.153 7.2461L7.16792 3.77605C6.95037 3.64576 6.69647 3.57056 6.42478 3.57056C5.75975 3.57056 5.19863 4.02311 5.03536 4.63733C5.03516 4.63793 5.03516 4.63834 5.03516 4.63886L10.3977 10.0006" fill="#3BAD49"/>
<path d="M23.6975 4.89069H22.2389V5.25163H23.3319C23.3022 5.54618 23.185 5.77743 22.9874 5.94539C22.7897 6.11339 22.5374 6.19773 22.2389 6.19773C21.9116 6.19773 21.6342 6.08369 21.407 5.85714C21.1843 5.6259 21.071 5.33994 21.071 4.99543C21.071 4.65093 21.1843 4.36497 21.407 4.13374C21.6343 3.9072 21.9116 3.7939 22.2389 3.7939C22.4069 3.7939 22.5671 3.8228 22.7139 3.8861C22.8608 3.94935 22.9788 4.03765 23.071 4.15095L23.3483 3.8736C23.2225 3.73061 23.0632 3.62126 22.8654 3.54156C22.6678 3.46186 22.4616 3.42361 22.2389 3.42361C21.8022 3.42361 21.4319 3.57516 21.1296 3.87751C20.8272 4.18061 20.6757 4.55405 20.6757 4.99543C20.6757 5.43681 20.8272 5.81106 21.1296 6.11343C21.4319 6.41572 21.8022 6.56733 22.2389 6.56733C22.6975 6.56733 23.0631 6.42043 23.3444 6.12198C23.592 5.87358 23.7186 5.53765 23.7186 5.11735C23.7186 5.04625 23.71 4.97045 23.6975 4.89075L23.6975 4.89069ZM24.2626 3.49073V6.50009H26.0195V6.13055H24.6493V5.1759H25.8852V4.81496H24.6493V3.86107H26.0195V3.49072L24.2626 3.49073ZM28.4832 3.86108V3.49073H26.4153V3.86108H27.2559V6.50008H27.6426V3.86108H28.4832ZM30.3554 3.49073H29.9687V6.50009H30.3554V3.49073ZM32.9079 3.86108V3.49073H30.84V3.86108H31.6805V6.50008H32.0673V3.86108H32.9079ZM36.8102 3.88217C36.5117 3.57513 36.1461 3.42358 35.7094 3.42358C35.2719 3.42358 34.9063 3.57513 34.6079 3.87749C34.3094 4.17593 34.1626 4.55013 34.1626 4.99541C34.1626 5.44068 34.3094 5.81494 34.6079 6.1134C34.9063 6.41569 35.2719 6.5673 35.7094 6.5673C36.1422 6.5673 36.5117 6.41571 36.8102 6.1134C37.1086 5.81496 37.2554 5.44072 37.2554 4.99541C37.2554 4.55403 37.1086 4.18056 36.8102 3.88217V3.88217ZM34.8852 4.13372C35.1079 3.90717 35.3813 3.79388 35.7094 3.79388C36.0367 3.79388 36.3102 3.90718 36.5289 4.13372C36.7516 4.35636 36.8609 4.64695 36.8609 4.9954C36.8609 5.34464 36.7516 5.63444 36.5289 5.85712C36.3102 6.08366 36.0367 6.19771 35.7094 6.19771C35.3813 6.19771 35.1078 6.08366 34.8852 5.85712C34.6672 5.62977 34.5579 5.34464 34.5579 4.9954C34.5579 4.64695 34.6672 4.36105 34.8852 4.13372V4.13372ZM38.1742 4.62591L38.1578 4.04541H38.1742L39.7039 6.50006H40.1078V3.4907H39.721V5.2516L39.7374 5.8321H39.721L38.2586 3.4907H37.7875V6.50006H38.1742V4.62591Z" fill="white" stroke="white" stroke-width="0.26666" stroke-miterlimit="10"/>
</g>
<defs>
<clipPath id="clip0_5180_45747">
<rect width="67.5004" height="20" fill="white"/>
</clipPath>
</defs>
</svg>
